<?xml version="1.0" encoding="UTF-8"?>
<svg width="154px" height="64px" viewBox="0 0 154 64" version="1.1" xmlns="http://www.w3.org/2000/svg" xmlns:xlink="http://www.w3.org/1999/xlink">
    <!-- Generator: Sketch 43.2 (39069) - http://www.bohemiancoding.com/sketch -->
    <title>LOGO2</title>
    <desc>Created with Sketch.</desc>
    <defs>
        <path d="M151.649789,5.72611765 C151.649789,3.44721569 149.808648,1.6 147.540032,1.6 C145.270166,1.6 143.429025,3.44721569 143.429025,5.72611765 C143.429025,8.00501961 145.270166,9.8534902 147.540032,9.8534902 C149.808648,9.8534902 151.649789,8.00501961 151.649789,5.72611765 Z" id="path-1"></path>
        <filter x="-24.3%" y="-24.2%" width="148.7%" height="148.5%" filterUnits="objectBoundingBox" id="filter-2">
            <feGaussianBlur stdDeviation="1.5" in="SourceAlpha" result="shadowBlurInner1"></feGaussianBlur>
            <feOffset dx="0" dy="1" in="shadowBlurInner1" result="shadowOffsetInner1"></feOffset>
            <feComposite in="shadowOffsetInner1" in2="SourceAlpha" operator="arithmetic" k2="-1" k3="1" result="shadowInnerInner1"></feComposite>
            <feColorMatrix values="0 0 0 0 0   0 0 0 0 0   0 0 0 0 0  0 0 0 1 0" type="matrix" in="shadowInnerInner1"></feColorMatrix>
        </filter>
        <polygon id="path-3" points="145.02268 36.531451 151.754783 36.531451 151.754783 11.2 145.02268 11.2"></polygon>
        <filter x="-29.7%" y="-7.9%" width="159.4%" height="115.8%" filterUnits="objectBoundingBox" id="filter-4">
            <feGaussianBlur stdDeviation="1.5" in="SourceAlpha" result="shadowBlurInner1"></feGaussianBlur>
            <feOffset dx="0" dy="1" in="shadowBlurInner1" result="shadowOffsetInner1"></feOffset>
            <feComposite in="shadowOffsetInner1" in2="SourceAlpha" operator="arithmetic" k2="-1" k3="1" result="shadowInnerInner1"></feComposite>
            <feColorMatrix values="0 0 0 0 0   0 0 0 0 0   0 0 0 0 0  0 0 0 1 0" type="matrix" in="shadowInnerInner1"></feColorMatrix>
        </filter>
        <polygon id="path-5" points="108.857317 11.2 104.75756 22.4790588 102.852672 27.7270588 101.140273 22.9923137 96.8480271 11.2 89.2447264 11.2 99.4103757 37.1865098 95.9468304 46.7162353 102.781427 46.7162353 116.460618 11.2"></polygon>
        <filter x="-7.3%" y="-5.6%" width="114.7%" height="111.3%" filterUnits="objectBoundingBox" id="filter-6">
            <feGaussianBlur stdDeviation="1.5" in="SourceAlpha" result="shadowBlurInner1"></feGaussianBlur>
            <feOffset dx="0" dy="1" in="shadowBlurInner1" result="shadowOffsetInner1"></feOffset>
            <feComposite in="shadowOffsetInner1" in2="SourceAlpha" operator="arithmetic" k2="-1" k3="1" result="shadowInnerInner1"></feComposite>
            <feColorMatrix values="0 0 0 0 0   0 0 0 0 0   0 0 0 0 0  0 0 0 1 0" type="matrix" in="shadowInnerInner1"></feColorMatrix>
        </filter>
        <polygon id="path-7" points="21.5824747 0 21.5824747 14.8643137 8.32575802 14.8643137 8.32575802 0 1.59365583 0 1.59365583 36.5226667 8.32575802 36.5226667 8.32575802 21.6796863 21.5824747 21.6796863 21.5824747 36.5226667 28.3145769 36.5226667 28.3145769 0"></polygon>
        <filter x="-7.5%" y="-5.5%" width="115.0%" height="111.0%" filterUnits="objectBoundingBox" id="filter-8">
            <feGaussianBlur stdDeviation="1.5" in="SourceAlpha" result="shadowBlurInner1"></feGaussianBlur>
            <feOffset dx="0" dy="1" in="shadowBlurInner1" result="shadowOffsetInner1"></feOffset>
            <feComposite in="shadowOffsetInner1" in2="SourceAlpha" operator="arithmetic" k2="-1" k3="1" result="shadowInnerInner1"></feComposite>
            <feColorMatrix values="0 0 0 0 0   0 0 0 0 0   0 0 0 0 0  0 0 0 1 0" type="matrix" in="shadowInnerInner1"></feColorMatrix>
        </filter>
        <polygon id="path-9" points="79.6827914 36.5226667 86.4148936 36.5226667 86.4148936 0 79.6827914 0"></polygon>
        <filter x="-29.7%" y="-5.5%" width="159.4%" height="111.0%" filterUnits="objectBoundingBox" id="filter-10">
            <feGaussianBlur stdDeviation="1.5" in="SourceAlpha" result="shadowBlurInner1"></feGaussianBlur>
            <feOffset dx="0" dy="1" in="shadowBlurInner1" result="shadowOffsetInner1"></feOffset>
            <feComposite in="shadowOffsetInner1" in2="SourceAlpha" operator="arithmetic" k2="-1" k3="1" result="shadowInnerInner1"></feComposite>
            <feColorMatrix values="0 0 0 0 0   0 0 0 0 0   0 0 0 0 0  0 0 0 1 0" type="matrix" in="shadowInnerInner1"></feColorMatrix>
        </filter>
        <path d="M140.715435,20.5992157 C140.522946,13.7311373 136.580679,9.89741176 131.024758,10.1797647 C128.592401,10.304 126.262539,11.507451 124.662634,13.4437647 L124.662634,0 L117.930531,0 L117.930531,36.5226667 L124.662634,36.5226667 C124.662634,36.5226667 124.700131,24.5170196 124.767627,21.7637647 C124.861372,17.9262745 126.41253,15.8381176 128.986128,15.6348235 C131.857208,15.4076863 133.899588,17.9149804 133.994582,22.2983529 C134.107075,27.4246275 134.012081,36.5226667 134.012081,36.5226667 L140.742933,36.5226667 C140.742933,36.5226667 140.914173,27.7182745 140.715435,20.5992157" id="path-11"></path>
        <filter x="-8.7%" y="-5.5%" width="117.5%" height="111.0%" filterUnits="objectBoundingBox" id="filter-12">
            <feGaussianBlur stdDeviation="1.5" in="SourceAlpha" result="shadowBlurInner1"></feGaussianBlur>
            <feOffset dx="0" dy="1" in="shadowBlurInner1" result="shadowOffsetInner1"></feOffset>
            <feComposite in="shadowOffsetInner1" in2="SourceAlpha" operator="arithmetic" k2="-1" k3="1" result="shadowInnerInner1"></feComposite>
            <feColorMatrix values="0 0 0 0 0   0 0 0 0 0   0 0 0 0 0  0 0 0 1 0" type="matrix" in="shadowInnerInner1"></feColorMatrix>
        </filter>
        <path d="M43.2961916,15.8745098 C39.565162,15.8745098 36.5290914,18.9226667 36.5290914,22.668549 C36.5290914,26.4144314 39.565162,29.4625882 43.2961916,29.4625882 L64.0137173,29.4625882 C67.7447469,29.4625882 70.7808175,26.4144314 70.7808175,22.668549 C70.7808175,18.9226667 67.7447469,15.8745098 64.0137173,15.8745098 L43.2961916,15.8745098 Z M64.0137173,35.737098 L43.2961916,35.737098 C36.1191157,35.737098 30.2794607,29.8741961 30.2794607,22.668549 C30.2794607,15.462902 36.1191157,9.6 43.2961916,9.6 L64.0137173,9.6 C71.1907932,9.6 77.0304482,15.462902 77.0304482,22.668549 C77.0304482,29.8741961 71.1907932,35.737098 64.0137173,35.737098 L64.0137173,35.737098 Z" id="path-13"></path>
        <filter x="-3.2%" y="-5.7%" width="106.4%" height="111.5%" filterUnits="objectBoundingBox" id="filter-14">
            <feGaussianBlur stdDeviation="1" in="SourceAlpha" result="shadowBlurInner1"></feGaussianBlur>
            <feOffset dx="0" dy="1" in="shadowBlurInner1" result="shadowOffsetInner1"></feOffset>
            <feComposite in="shadowOffsetInner1" in2="SourceAlpha" operator="arithmetic" k2="-1" k3="1" result="shadowInnerInner1"></feComposite>
            <feColorMatrix values="0 0 0 0 0.694223002   0 0 0 0 0   0 0 0 0 0.030478083  0 0 0 1 0" type="matrix" in="shadowInnerInner1"></feColorMatrix>
        </filter>
    </defs>
    <g id="Symbols" stroke="none" stroke-width="1" fill="none" fill-rule="evenodd">
        <g id="LOGO2">
            <g id="LOGO">
                <g id="Fill-1">
                    <use fill="#4F4F4F" fill-rule="evenodd" xlink:href="#path-1"></use>
                    <use fill="black" fill-opacity="1" filter="url(#filter-2)" xlink:href="#path-1"></use>
                </g>
                <g id="Fill-3">
                    <use fill="#4F4F4F" fill-rule="evenodd" xlink:href="#path-3"></use>
                    <use fill="black" fill-opacity="1" filter="url(#filter-4)" xlink:href="#path-3"></use>
                </g>
                <g id="Fill-5">
                    <use fill="#4F4F4F" fill-rule="evenodd" xlink:href="#path-5"></use>
                    <use fill="black" fill-opacity="1" filter="url(#filter-6)" xlink:href="#path-5"></use>
                </g>
                <g id="Fill-6">
                    <use fill="#4F4F4F" fill-rule="evenodd" xlink:href="#path-7"></use>
                    <use fill="black" fill-opacity="1" filter="url(#filter-8)" xlink:href="#path-7"></use>
                </g>
                <g id="Fill-7">
                    <use fill="#4F4F4F" fill-rule="evenodd" xlink:href="#path-9"></use>
                    <use fill="black" fill-opacity="1" filter="url(#filter-10)" xlink:href="#path-9"></use>
                </g>
                <g id="Fill-8">
                    <use fill="#4F4F4F" fill-rule="evenodd" xlink:href="#path-11"></use>
                    <use fill="black" fill-opacity="1" filter="url(#filter-12)" xlink:href="#path-11"></use>
                </g>
                <g id="Fill-9">
                    <use fill="#EB1E27" fill-rule="evenodd" xlink:href="#path-13"></use>
                    <use fill="black" fill-opacity="1" filter="url(#filter-14)" xlink:href="#path-13"></use>
                </g>
                <path d="M7.68454591,59.515451 C7.82078786,58.3546667 7.95827973,57.2189804 8.04452464,56.3957647 L3.26980678,56.3957647 C3.05856926,57.5176471 2.84733175,58.6294902 2.65984283,59.515451 L7.68454591,59.515451 Z M11.016849,62.3502745 L11.016849,62.9375686 L0,62.9375686 L0,62.3502745 L7.29831873,62.3502745 C7.39831282,61.6638431 7.50955625,60.8770196 7.60955034,60.0901961 L1.87738906,60.0901961 C2.27486558,58.4676078 2.82233322,55.6327843 3.12106557,53.5847843 L0.434974297,53.5847843 L0.434974297,53 L10.644371,53 L10.644371,53.5847843 L3.76727739,53.5847843 C3.6435347,54.2724706 3.50604282,55.0341961 3.38230014,55.8210196 L8.16951725,55.8210196 L8.2820106,55.7821176 L8.70323571,55.8448627 C8.54199524,57.4687059 8.2195143,60.2771765 7.89578343,62.3502745 L11.016849,62.3502745 Z" id="Fill-10" fill="#333333"></path>
                <path d="M29.9306041,55.1096471 C29.7443651,60.2911373 29.5831246,62.0141176 29.1469004,62.5374118 C28.9231636,62.8134902 28.6994268,62.8875294 28.3269489,62.9251765 C27.9532209,62.9364706 27.2570121,62.9251765 26.5733025,62.8737255 C26.5608032,62.688 26.4983069,62.4621176 26.3870635,62.2889412 C27.157018,62.3516863 27.8782254,62.3516863 28.1282106,62.3516863 C28.3644466,62.3629804 28.5131879,62.3378824 28.6256812,62.176 C28.9856599,61.7882353 29.1718989,60.0916078 29.3456387,55.3342745 L27.1332694,55.3342745 C26.9582797,58.3924706 26.4233113,61.3527843 24.5584215,63.0757647 C24.4721766,62.9364706 24.2346907,62.7507451 24.0734502,62.675451 C25.8645944,61.0905098 26.3995627,58.2431373 26.5608032,55.3342745 L24.5959193,55.3342745 L24.5959193,54.7469804 L26.5858017,54.7469804 C26.6232995,53.8246275 26.6357988,52.8997647 26.6357988,52 L27.2195143,52 C27.207015,52.8997647 27.207015,53.8246275 27.157018,54.7469804 L29.9306041,54.7469804 L29.9306041,55.1096471 Z M19.4599728,53.3992157 L24.1984428,53.3992157 L24.1984428,52.8382745 L19.4599728,52.8382745 L19.4599728,53.3992157 Z M23.9734561,61.4142745 C23.8997105,61.139451 23.7997164,60.8156863 23.6759737,60.4530196 C20.032439,61.2009412 19.6349625,61.3138824 19.3849773,61.4632157 L19.3849773,61.4519216 C19.3487294,61.3138824 19.2487353,61.0014118 19.1749897,60.8646275 C19.3487294,60.8156863 19.5349684,60.4404706 19.7212074,59.9661176 C19.9074464,59.5407059 20.4924118,57.9432157 20.8286419,56.4072157 L19,56.4072157 L19,55.8462745 L24.4346789,55.8462745 L24.4346789,56.4072157 L21.4498552,56.4072157 C21.0898765,57.8679216 20.5799066,59.4290196 20.0449383,60.627451 L23.500984,59.9410196 C23.264748,59.2294902 22.9547663,58.4552157 22.6810325,57.7938824 L23.1910023,57.6558431 C23.688473,58.8040784 24.2596892,60.3400784 24.5096744,61.2147451 L23.9734561,61.4142745 Z" id="Fill-11" fill="#333333"></path>
                <path d="M43.0183944,57.2693333 L46.4131938,57.2693333 L46.4131938,55.8462745 L43.0183944,55.8462745 L43.0183944,57.2693333 Z M43.0183944,55.3455686 L46.4131938,55.3455686 L46.4131938,53.9601569 L43.0183944,53.9601569 L43.0183944,55.3455686 Z M45.4432511,59.6536471 C46.189457,60.7642353 47.3956357,61.8873725 48.4780717,62.4244706 C48.3280806,62.5374118 48.1293424,62.7607843 48.0180989,62.9239216 C46.9856599,62.2876863 45.7794812,61.100549 45.020776,59.9021176 L45.020776,63.3116863 L44.4358106,63.3116863 L44.4358106,59.9021176 C43.6771054,61.1896471 42.4346789,62.3617255 41.2522487,62.9741176 C41.1535046,62.8235294 40.9660156,62.6001569 40.8297737,62.4746667 C42.0234532,61.9626667 43.2546304,60.8395294 43.9758378,59.6536471 L41.3272443,59.6536471 L41.3272443,59.116549 L44.4358106,59.116549 L44.4358106,57.7926275 L42.4584275,57.7926275 L42.4584275,53.9601569 L41.2160009,53.9601569 L41.2160009,53.4105098 L42.4584275,53.4105098 L42.4584275,52 L43.0183944,52 L43.0183944,53.4105098 L46.4131938,53.4105098 L46.4131938,52 L46.9856599,52 L46.9856599,53.4105098 L48.1918387,53.4105098 L48.1918387,53.9601569 L46.9856599,53.9601569 L46.9856599,57.7926275 L45.020776,57.7926275 L45.020776,59.116549 L48.1543409,59.116549 L48.1543409,59.6536471 L45.4432511,59.6536471 Z M38.7911442,55.1962353 C38.5424089,56.4938039 38.268675,57.7675294 38.0074405,58.7538824 C38.454914,59.0663529 38.9398854,59.4277647 39.3748597,59.8155294 C39.8473317,58.617098 40.1585634,57.0936471 40.3073046,55.1962353 L38.7911442,55.1962353 Z M40.89227,54.6716863 C40.7560281,57.030902 40.3947994,58.8417255 39.8348325,60.2271373 C40.3323031,60.7014902 40.7672774,61.1896471 41.0535105,61.6012549 L40.6060369,62.0128627 C40.3698009,61.651451 40.0098221,61.2260392 39.5735979,60.8018824 C39.0148809,61.9250196 38.2936736,62.7243922 37.3987264,63.2853333 C37.2987323,63.136 37.1487412,62.9126275 37,62.7996863 C37.8586993,62.3127843 38.5786567,61.5134118 39.1261244,60.3639216 C38.5674074,59.8657255 37.9574434,59.3650196 37.3612287,58.9534118 C37.6587111,58.0047059 37.9699427,56.6067451 38.2311772,55.1962353 L37.186239,55.1962353 L37.186239,54.6340392 L38.3424207,54.6340392 C38.4924118,53.6978824 38.6286538,52.7993725 38.7161486,52 L39.2748656,52.025098 C39.1886207,52.8244706 39.0386295,53.7229804 38.8898883,54.6340392 L40.4447964,54.6340392 L40.5447905,54.6089412 L40.89227,54.6716863 Z" id="Fill-12" fill="#333333"></path>
                <path d="M61.8707849,55.2464314 C62.6294901,57.4437647 64.0094085,59.616 65.4280747,60.6638431 C65.2905828,60.7767843 65.0918446,61.0014118 64.9681019,61.152 C63.5244372,59.9661176 62.1695173,57.6934902 61.3745642,55.3719216 L61.3745642,60.2773333 L63.5631849,60.2773333 L63.5631849,60.8395294 L61.3745642,60.8395294 L61.3745642,63.2363922 L60.7895988,63.2363922 L60.7895988,60.8395294 L58.500984,60.8395294 L58.500984,60.2773333 L60.7895988,60.2773333 L60.7895988,55.3832157 C59.9558981,57.7185882 58.5759796,59.9786667 57.1335648,61.177098 C57.04607,61.0390588 56.8473317,60.8395294 56.6973406,60.7391373 C58.1160068,59.6536471 59.5084245,57.4437647 60.3171267,55.2464314 L57.0710685,55.2464314 L57.0710685,54.6716863 L60.7895988,54.6716863 L60.7895988,52 L61.3745642,52 L61.3745642,54.6716863 L65.253085,54.6716863 L65.253085,55.2464314 L61.8707849,55.2464314 Z M57.3698009,52.1756863 C57.04607,53.1356863 56.6360942,54.0856471 56.1886207,54.9590588 L56.1886207,63.2740392 L55.6161545,63.2740392 L55.6161545,55.9705098 C55.2311772,56.620549 54.794953,57.2065882 54.372478,57.7060392 C54.3099817,57.580549 54.1112434,57.3069804 54,57.1689412 C55.1311832,55.9077647 56.1636221,53.9727059 56.809834,52.0263529 L57.3698009,52.1756863 Z" id="Fill-13" fill="#333333"></path>
                <path d="M77.297187,57.8553725 C77.7821583,58.9797647 78.515865,59.9661176 79.4608091,60.7391373 C80.4057533,59.9899608 81.189457,59.0161569 81.6744283,57.8553725 L77.297187,57.8553725 Z M82.4568821,57.4437647 C81.9481621,58.9672157 81.0269666,60.1781961 79.920782,61.1018039 C80.8657261,61.7756863 81.98441,62.2625882 83.253085,62.5361569 C83.1168431,62.6741961 82.9431034,62.9239216 82.8681078,63.0858039 C81.5744342,62.7620392 80.4182526,62.2249412 79.4483099,61.4757647 C78.4408694,62.2123922 77.3096862,62.7243922 76.1522546,63.0494118 C76.1035075,62.9000784 75.9535164,62.6616471 75.842273,62.5248627 C76.9234591,62.2500392 78.0058951,61.7756863 78.988337,61.1018039 C77.9808966,60.2145882 77.2221914,59.129098 76.6997223,57.8553725 L76.1772532,57.8553725 L76.1772532,57.2806275 L81.9719107,57.2806275 L82.0844041,57.2442353 L82.4568821,57.4437647 Z M78.2171326,53.6100392 C78.2171326,54.7344314 77.8184062,56.0458039 76.0285119,56.9317647 C75.9535164,56.8062745 75.7547781,56.5703529 75.6435347,56.4699608 C77.3346848,55.6831373 77.6446664,54.572549 77.6446664,53.5974902 L77.6446664,52.2120784 L81.3007004,52.2120784 L81.3007004,55.2087843 C81.3007004,55.5576471 81.3381982,55.6580392 81.5244372,55.6580392 L82.5193784,55.6580392 C82.6818688,55.6580392 82.9056056,55.6329412 83.0543468,55.6078431 C83.066846,55.7571765 83.0918446,56.006902 83.1168431,56.1449412 C82.9793512,56.1825882 82.7556144,56.1951373 82.5318777,56.1951373 L81.5131879,56.1951373 C80.8782254,56.1951373 80.7294842,55.9328627 80.7294842,55.1836863 L80.7294842,52.7742745 L78.2171326,52.7742745 L78.2171326,53.6100392 Z M74.8973288,54.2839216 C74.5236009,53.7593725 73.7161486,52.9487059 73.0561876,52.3752157 L73.4674133,52 C74.1386236,52.5483922 74.9335767,53.3352157 75.3198038,53.8484706 L74.8973288,54.2839216 Z M76.0535105,60.3777255 C76.0910083,60.5396078 76.1772532,60.7516863 76.2522487,60.8633725 C74.1011258,62.3253333 73.8148928,62.5248627 73.641153,62.7369412 C73.5786567,62.598902 73.404917,62.3629804 73.2799244,62.2374902 C73.4786626,62.086902 73.9023876,61.7129412 73.9023876,61.164549 L73.9023876,56.2691765 L72,56.2691765 L72,55.6831373 L74.4736038,55.6831373 L74.4736038,61.4004706 L76.0535105,60.3777255 Z" id="Fill-14" fill="#333333"></path>
                <path d="M100.204338,56.8326275 L96.8707849,56.8326275 L96.8707849,63.2752941 L96.2620709,63.2752941 L96.2620709,56.8326275 L93.0160127,56.8326275 L93.0160127,56.2327843 L96.2620709,56.2327843 L96.2620709,52 L96.8707849,52 L96.8707849,56.2327843 L100.204338,56.2327843 L100.204338,56.8326275 Z M92.1460641,54.585098 C91.7473377,54.060549 90.9148868,53.2109804 90.2311772,52.6249412 L90.641153,52.2509804 C91.3248626,52.8257255 92.1585634,53.6112941 92.5560399,54.1232941 L92.1460641,54.585098 Z M93.3397436,60.4153725 C93.3897406,60.5659608 93.502234,60.8156863 93.5647303,60.9273725 C91.3248626,62.4884706 91.0273802,62.713098 90.8523905,62.9364706 C90.7911442,62.7871373 90.6286538,62.5248627 90.5049111,62.3880784 C90.7036493,62.2751373 91.064878,61.9375686 91.064878,61.4268235 L91.064878,56.5201569 L89,56.5201569 L89,55.9328627 L91.6610928,55.9328627 L91.6610928,61.5385098 L93.3397436,60.4153725 Z" id="Fill-15" fill="#333333"></path>
                <path d="M114.118388,60.3400784 C115.798289,61.0265098 117.538186,61.9752157 118.583125,62.7858824 L118.185648,63.2476863 C117.176958,62.4119216 115.498307,61.4757647 113.808407,60.7767843 L114.118388,60.3400784 Z M111.979765,56.8815686 C111.593538,56.4448627 110.811084,55.8086275 110.127374,55.4083137 L110.512352,55.033098 C111.183562,55.4208627 111.979765,56.0081569 112.365992,56.4561569 L111.979765,56.8815686 Z M109.268675,56.9681569 C109.989882,57.3559216 110.848582,57.9796078 111.258557,58.4414118 L110.886079,58.8919216 C110.474854,58.4414118 109.629904,57.7800784 108.908696,57.3684706 L109.268675,56.9681569 Z M108.896197,55.9316078 L108.311232,55.9316078 L108.311232,53.5974902 L113.322186,53.5974902 C113.137196,53.1733333 112.838464,52.6123922 112.538482,52.1744314 L113.123447,52 C113.459677,52.499451 113.832155,53.1733333 114.007145,53.5974902 L118.284392,53.5974902 L118.284392,55.9316078 L117.675678,55.9316078 L117.675678,54.1722353 L108.896197,54.1722353 L108.896197,55.9316078 Z M118.645621,59.3662745 L118.645621,59.9021176 L113.360933,59.9021176 C112.677224,61.5636078 111.296055,62.649098 108.472472,63.2614902 C108.422475,63.123451 108.249985,62.8862745 108.124993,62.7494902 C110.69984,62.2123922 112.017263,61.3126275 112.688473,59.9021176 L108,59.9021176 L108,59.3662745 L112.924709,59.3662745 C113.334685,58.1791373 113.41093,56.6945882 113.472177,54.8461176 L114.09339,54.8461176 C114.032144,56.6556863 113.933399,58.1427451 113.559671,59.3662745 L118.645621,59.3662745 Z" id="Fill-16" fill="#333333"></path>
                <path d="M132.069523,60.5521569 C132.020776,59.7402353 131.78329,58.5041569 131.560803,57.5303529 L132.044525,57.4676078 C132.29451,58.4301176 132.516997,59.6523922 132.579493,60.4643137 L132.069523,60.5521569 Z M130.142137,56.4812549 L133.761923,56.4812549 L133.761923,55.9441569 L130.142137,55.9441569 L130.142137,56.4812549 Z M129.832155,57.7173333 C130.242131,58.6785882 130.60211,59.9272157 130.727102,60.7265882 L130.229632,60.8633725 C130.105889,60.0401569 129.744661,58.7915294 129.334685,57.8428235 L129.832155,57.7173333 Z M134.979351,57.8666667 C134.433133,59.2282353 133.64943,60.9888627 132.989469,62.1621961 L135.141842,62.1621961 L135.141842,62.7118431 L128.89971,62.7118431 L128.89971,62.1621961 L132.443251,62.1621961 C133.114461,60.9888627 133.960661,59.0538039 134.420634,57.7047843 L134.979351,57.8666667 Z M132.393254,52.1618824 C132.330758,52.3363137 132.255762,52.512 132.169517,52.6738824 C132.915723,53.9852549 134.334389,55.4961569 135.50182,56.3432157 C135.376828,56.4561569 135.228087,56.6807843 135.154341,56.8313725 C134.021908,55.9567059 132.704486,54.5098039 131.884534,53.2097255 C131.050833,54.7093333 129.894652,55.9818039 128.650975,56.8677647 C128.56223,56.7686275 128.377241,56.531451 128.264748,56.4059608 C129.782158,55.4196078 131.124579,53.8221176 131.870785,52 L132.393254,52.1618824 Z M128.56223,57.9055686 C128.56223,57.9055686 128.550981,58.1176471 128.538482,58.1916863 C128.314745,61.3879216 128.128506,62.5361569 127.72978,62.9352157 C127.55604,63.136 127.344802,63.2100392 127.008572,63.2238431 C126.697341,63.2363922 126.126124,63.2238431 125.52991,63.1861961 C125.51741,63.0105098 125.454914,62.8109804 125.35492,62.649098 C125.989882,62.7118431 126.598596,62.7231373 126.834832,62.7231373 C127.04607,62.7231373 127.171063,62.7118431 127.269807,62.5738039 C127.581038,62.2876863 127.779777,61.2122353 127.979765,58.4301176 L124.571216,58.4301176 C124.721207,57.3684706 124.894947,55.52 124.981192,54.2086275 L125.51741,54.2349804 C125.429916,55.3706667 125.292424,56.8564706 125.168681,57.9055686 L127.033571,57.9055686 C127.183562,56.6682353 127.3823,54.7457255 127.493544,53.2097255 L124.446224,53.2097255 L124.446224,52.6738824 L128.078509,52.6738824 C127.941017,54.3215686 127.742279,56.5941961 127.568539,57.9055686 L128.56223,57.9055686 Z M127.394799,60.3262745 C126.237368,60.6638431 125.081186,61.0265098 124.148741,61.3013333 L124,60.7504314 C124.857449,60.5383529 126.088627,60.1769412 127.332303,59.8280784 L127.394799,60.3262745 Z" id="Fill-17" fill="#333333"></path>
                <path d="M152.326949,58.7425882 C152.151959,58.5054118 151.879475,58.2054902 151.580743,57.9181176 C145.463604,58.4037647 144.953635,58.4426667 144.617404,58.566902 C144.579907,58.4301176 144.504911,58.1301961 144.418666,57.9683137 C144.653652,57.9432157 144.927386,57.7687843 145.264866,57.5065098 C145.562349,57.3057255 146.482294,56.5452549 147.253499,55.6831373 L144.406167,55.6831373 L144.406167,55.1334902 L152.63818,55.1334902 L152.63818,55.6831373 L148.0747,55.6831373 C147.290996,56.5076078 146.458546,57.2680784 145.624845,57.8679216 L151.12077,57.4563137 C150.710794,57.0823529 150.287069,56.7196863 149.903342,56.4072157 L150.349566,56.096 C151.233263,56.7824314 152.276952,57.7562353 152.786922,58.3924706 L152.326949,58.7425882 Z M143.783704,55.3593725 L143.198738,55.3593725 L143.198738,53.2737255 L148.359683,53.2737255 C148.210942,52.9236078 147.974706,52.499451 147.774718,52.1756863 L148.335935,52 C148.597169,52.3877647 148.882152,52.9236078 149.030894,53.2737255 L153.744365,53.2737255 L153.744365,55.3593725 L153.1469,55.3593725 L153.1469,53.8359216 L143.783704,53.8359216 L143.783704,55.3593725 Z M153.968102,62.4872157 L153.968102,63.0494118 L143,63.0494118 L143,62.4872157 L148.160945,62.4872157 L148.160945,60.4781176 L144.131183,60.4781176 L144.131183,59.9272157 L148.160945,59.9272157 L148.160945,58.3924706 L148.75841,58.3924706 L148.75841,59.9272157 L152.799421,59.9272157 L152.799421,60.4781176 L148.75841,60.4781176 L148.75841,62.4872157 L153.968102,62.4872157 Z" id="Fill-18" fill="#333333"></path>
            </g>
        </g>
    </g>
</svg>