<?xml version="1.0" encoding="UTF-8"?>
<svg width="16px" height="16px" viewBox="0 0 16 16" version="1.1" xmlns="http://www.w3.org/2000/svg" xmlns:xlink="http://www.w3.org/1999/xlink">
    <!-- Generator: Sketch 43.2 (39069) - http://www.bohemiancoding.com/sketch -->
    <title>Behance1</title>
    <desc>Created with Sketch.</desc>
    <defs></defs>
    <g id="Symbols" stroke="none" stroke-width="1" fill="none" fill-rule="evenodd">
        <g id="Behance1">
            <g id="Behance">
                <rect id="Rectangle-6" stroke="#333333" stroke-width="0.5" x="0.25" y="0.25" width="15.5" height="15.5"></rect>
                <g id="behance" transform="translate(2.666667, 4.666667)" fill-rule="nonzero" fill="#000000">
                    <path d="M10.2203245,0.486700405 L7.39424994,0.486700405 L7.39424994,1.19462826 L10.2203245,1.19462826 L10.2203245,0.486700405 L10.2203245,0.486700405 Z M8.8266439,2.91877514 C8.49481519,2.91877514 8.22566523,3.01868431 8.01919403,3.21850266 C7.81272283,3.41832101 7.69842627,3.68950305 7.67630436,4.03204878 L9.93273964,4.03204878 C9.8663739,3.28986635 9.49767532,2.91877514 8.82664391,2.91877514 L8.8266439,2.91877514 Z M8.91513156,6.25859608 C9.14741166,6.25859608 9.37231779,6.19769906 9.58984996,6.07590502 C9.80738212,5.95411098 9.94748757,5.78854721 10.0101663,5.5792137 L11.2324021,5.5792137 C10.8637035,6.74767527 10.0765321,7.33190605 8.87088773,7.33190605 C8.08187278,7.33190605 7.45416345,7.08070584 6.98775975,6.57830543 C6.52135605,6.07590502 6.2881542,5.41555296 6.28815421,4.59724925 C6.28815421,3.80558799 6.52873003,3.14809048 7.00988167,2.62475672 C7.49103331,2.10142296 8.11136867,1.83975607 8.87088773,1.83975606 C9.37969176,1.83975606 9.8230518,1.96916223 10.2009678,2.22797457 C10.5788839,2.4867869 10.8609383,2.82742961 11.0471311,3.24990268 C11.2333238,3.67237576 11.3264202,4.14432766 11.3264202,4.6657584 C11.3264202,4.73046149 11.3227332,4.81990399 11.3153593,4.9340859 L7.67630434,4.9340859 C7.67630434,5.35655897 7.78230518,5.68292894 7.99430686,5.9131958 C8.20630854,6.14346266 8.51325011,6.25859609 8.91513155,6.25859609 L8.91513156,6.25859608 Z M1.53194259,5.97314129 L3.16896426,5.97314129 C3.92479634,5.97314129 4.30271238,5.65533497 4.30271238,5.01972233 C4.30271238,4.33463085 3.9358573,3.99208511 3.20214713,3.99208511 L1.53194258,3.99208511 L1.53194258,5.97314129 L1.53194259,5.97314129 Z M1.53194259,2.90735694 L3.08600709,2.90735694 C3.37359198,2.90735694 3.60126335,2.83789627 3.7690212,2.69897495 C3.93677905,2.56005362 4.02065798,2.3440595 4.02065798,2.05099259 C4.02065798,1.50291941 3.67039433,1.22888282 2.96986704,1.22888282 L1.53194259,1.22888282 L1.53194259,2.90735694 L1.53194259,2.90735694 Z M9.67850838e-09,0.00142726249 L3.28510431,0.00142726249 C3.60587207,0.00142726249 3.89161347,0.0280697087 4.1423285,0.0813546013 C4.39304354,0.134639494 4.62624538,0.225033507 4.84193405,0.352536642 C5.05762271,0.480039777 5.22353707,0.663682352 5.33967712,0.903464369 C5.45581717,1.14324639 5.5138872,1.43631329 5.5138872,1.7826651 C5.5138872,2.47156263 5.19680642,2.97206001 4.56264488,3.28415724 C4.98296125,3.40595128 5.30004202,3.62479995 5.5138872,3.94070324 C5.72773237,4.25660654 5.83465496,4.64482504 5.83465496,5.10535875 C5.83465496,5.39081354 5.78948938,5.65057739 5.69915823,5.88465031 C5.60882708,6.11872323 5.48715655,6.31568703 5.33414664,6.4755417 C5.18113673,6.63539638 4.99955268,6.77051165 4.7893945,6.8808875 C4.57923631,6.99126335 4.35617367,7.07119069 4.12020658,7.12066951 C3.88423949,7.17014834 3.63721144,7.19488775 3.37912244,7.19488775 L1.70530257e-13,7.19488775 L1.70530257e-13,0.00142726249 L9.67850838e-09,0.00142726249 Z" id="Shape"></path>
                </g>
            </g>
        </g>
    </g>
</svg>