<?xml version="1.0" encoding="UTF-8"?>
<svg width="16px" height="16px" viewBox="0 0 16 16" version="1.1" xmlns="http://www.w3.org/2000/svg" xmlns:xlink="http://www.w3.org/1999/xlink">
    <!-- Generator: Sketch 43.2 (39069) - http://www.bohemiancoding.com/sketch -->
    <title>微博1</title>
    <desc>Created with Sketch.</desc>
    <defs></defs>
    <g id="Symbols" stroke="none" stroke-width="1" fill="none" fill-rule="evenodd">
        <g id="微博1">
            <g id="微博">
                <rect id="Rectangle-6" stroke="#333333" stroke-width="0.5" x="0.25" y="0.25" width="15.5" height="15.5"></rect>
                <path d="M10.8858882,7.90239382 C10.7487619,7.87506409 10.6597308,7.83420541 10.618795,7.77981776 C10.5778592,7.72543012 10.5709896,7.6754121 10.5981863,7.62976371 L10.6394037,7.5617112 C10.6484638,7.55270013 10.6576729,7.53903526 10.6670311,7.5207166 C10.6763892,7.50239794 10.6946667,7.46372201 10.7218634,7.4046888 C10.74906,7.3456556 10.7696729,7.28662239 10.7837019,7.22758919 C10.7977308,7.16855598 10.8091304,7.09585792 10.8179006,7.00949498 C10.8266708,6.92313205 10.8243354,6.84127053 10.8108944,6.76391042 C10.7974534,6.68655032 10.7699669,6.60250605 10.7284348,6.51177761 C10.6869027,6.42104916 10.6297391,6.33918764 10.5569441,6.26619305 C10.4288861,6.13882728 10.2620787,6.05696577 10.0565217,6.02060849 C9.8509648,5.98425122 9.64541201,5.98192844 9.43986335,6.01364015 C9.2343147,6.04535187 9.04017391,6.08621055 8.85744099,6.13621622 C8.67470807,6.18622188 8.52398344,6.23391712 8.40526708,6.27930193 L8.22720497,6.36131583 C8.13569358,6.38864556 8.06025673,6.4068242 8.00089441,6.41585174 C7.94153209,6.42487928 7.8957764,6.4225565 7.86362733,6.4088834 C7.83147826,6.3952103 7.80633126,6.38154543 7.78818634,6.3678888 C7.77004141,6.35423218 7.76317184,6.32238867 7.76757764,6.2723583 C7.77198344,6.22232793 7.77651346,6.17914646 7.7811677,6.1428139 C7.78582195,6.10648134 7.79722153,6.04962677 7.81536646,5.97225019 C7.83351139,5.89487362 7.84725052,5.83351351 7.85658385,5.78816988 C7.85658385,5.67912278 7.84971429,5.57690811 7.83597516,5.48152587 C7.82223602,5.38614363 7.79255901,5.27941931 7.7469441,5.1613529 C7.70132919,5.04328649 7.63510145,4.94790013 7.54826087,4.87519382 C7.46142029,4.80248752 7.35177226,4.74345431 7.21931677,4.69809421 C7.08686128,4.65273411 6.91551967,4.63906924 6.70529193,4.65709961 C6.49506418,4.67512999 6.25749896,4.72965354 5.99259627,4.82067027 C5.67272878,4.92971737 5.34833126,5.09096937 5.01940373,5.30442625 C4.69047619,5.51788314 4.4049648,5.74049112 4.16286957,5.97225019 C3.92077433,6.20400927 3.699147,6.42894826 3.49798758,6.64706718 C3.29682816,6.8651861 3.14142443,7.04243398 3.0317764,7.17881081 L2.88090683,7.39690502 C2.57945756,7.78774981 2.35563975,8.17859048 2.20945342,8.56942703 C2.06326708,8.96026358 1.99470393,9.25558198 2.00376398,9.45538224 L2.00376398,9.74154131 C2.05873706,10.1777462 2.19352381,10.5685869 2.40812422,10.9140633 C2.62272464,11.2595398 2.87856315,11.5390023 3.17563975,11.752451 C3.47271636,11.9658996 3.82226087,12.147653 4.22427329,12.2977112 C4.62628571,12.4477694 5.01238095,12.5568247 5.38255901,12.6248772 C5.75273706,12.6929297 6.14336646,12.740625 6.5544472,12.7679629 C7.23073706,12.8226389 7.9320207,12.7704381 8.65829814,12.6113606 C9.38457557,12.4522831 10.0607205,12.1773261 10.6867329,11.7864896 C11.3127453,11.395653 11.7536605,10.9276005 12.0094783,10.382332 C12.1647329,10.0641936 12.2447039,9.76422548 12.2493913,9.4824278 C12.2540787,9.20063012 12.2061242,8.97118559 12.105528,8.79409421 C12.0049317,8.61700283 11.8746749,8.46025637 11.7147578,8.32385483 C11.5548406,8.18745328 11.4041159,8.08741725 11.2625839,8.02374672 C11.1210518,7.96007619 10.9954741,7.9192175 10.8858509,7.90117066 L10.8858882,7.90239382 Z M6.70578882,12.1418996 C5.71898965,12.187268 4.88071636,11.9963552 4.19096894,11.5691614 C3.50122153,11.1419676 3.15635611,10.601217 3.15637267,9.94690965 C3.15637267,9.30162162 3.49904762,8.74501931 4.18439752,8.2771027 C4.86974741,7.8091861 5.71035611,7.5524036 6.7062236,7.50675521 C7.7020911,7.46110682 8.54269979,7.6246816 9.22804969,7.99747954 C9.91339959,8.37027748 10.2560745,8.87918456 10.2560745,9.52420077 C10.2560745,10.1785163 9.90653002,10.7669622 9.20744099,11.2895382 C8.50835197,11.8121143 7.67461284,12.0960824 6.7062236,12.1414425 L6.70578882,12.1418996 Z M6.3084472,8.36564015 C6.0435528,8.39296988 5.80598758,8.45432999 5.59575155,8.54972046 C5.38551553,8.64511094 5.22105176,8.75416628 5.10236025,8.87688649 C4.98366874,8.99960669 4.88308903,9.13133797 4.80062112,9.27208031 C4.71815321,9.41282265 4.66098965,9.55139048 4.62913043,9.68778378 C4.59727122,9.82417709 4.57665839,9.94907593 4.56729193,10.0624803 C4.55792547,10.1758847 4.55339545,10.2644345 4.55370186,10.3281297 L4.56729193,10.4371892 L4.56729193,10.4917251 C4.56729193,10.5190548 4.57650104,10.5735784 4.59491925,10.6552958 C4.61333747,10.7370131 4.63848447,10.8120422 4.67036025,10.880383 C4.70223602,10.9487238 4.7547205,11.0237529 4.82781366,11.1054703 C4.90090683,11.1871876 4.98774741,11.2553802 5.0883354,11.3100479 C5.69153209,11.6008566 6.25349482,11.6894064 6.7742236,11.5756973 C7.29495238,11.4619882 7.71525466,11.2007042 8.03513043,10.7918456 C8.16318841,10.6374301 8.24768944,10.4465174 8.28863354,10.2191073 C8.32957764,9.9916973 8.32036853,9.76225277 8.26100621,9.53077375 C8.20164389,9.29929472 8.09887371,9.08802471 7.95269565,8.89696371 C7.8065176,8.7059027 7.58956522,8.55817143 7.30183851,8.45376988 C7.0141118,8.34936834 6.68283644,8.31985174 6.30801242,8.36522008 L6.3084472,8.36564015 Z M5.81503106,10.942332 C5.76005797,10.9513431 5.7075735,10.9536659 5.65757764,10.9493004 C5.60758178,10.9449349 5.56182609,10.9357755 5.52031056,10.9218224 C5.47879503,10.9078692 5.43771429,10.8920257 5.39706832,10.8742919 C5.35642236,10.856558 5.32221532,10.831547 5.2944472,10.7992587 C5.26667909,10.7669704 5.24153209,10.7351269 5.21900621,10.7037282 C5.19648033,10.6723295 5.1782029,10.6359763 5.16417391,10.5946687 C5.15014493,10.5533611 5.14327536,10.5101797 5.14356522,10.4651243 C5.14356522,10.3650883 5.17105176,10.2673792 5.22602484,10.1719969 C5.28099793,10.0766147 5.35643478,9.99475315 5.4523354,9.92641236 C5.54823602,9.85807156 5.65554037,9.81939562 5.77424845,9.81038456 C5.85640994,9.80137349 5.93638095,9.80369627 6.01416149,9.8173529 C6.09194203,9.83100952 6.15816977,9.85369369 6.21284472,9.88540541 C6.26751967,9.91711712 6.31547412,9.95347027 6.35670807,9.99446486 C6.39794203,10.0354595 6.42761905,10.0831547 6.44573913,10.1375506 C6.46385921,10.1919465 6.47306832,10.2509797 6.47336646,10.3146502 C6.47336646,10.4146862 6.44368944,10.5100726 6.3843354,10.6008093 C6.32498137,10.6915459 6.24501035,10.7687537 6.14442236,10.8324324 C6.04383437,10.8961112 5.93418634,10.9324644 5.81547826,10.9414919 L5.81503106,10.942332 Z M6.97990062,9.96085869 C6.91586749,10.006227 6.84963975,10.0267284 6.78121739,10.0223629 C6.71279503,10.0179974 6.66484058,9.98848082 6.63735404,9.93381313 L6.60972671,9.87927722 C6.60066667,9.86095856 6.59613665,9.84277992 6.59613665,9.82474131 L6.59613665,9.77020541 C6.59613665,9.74287568 6.60066667,9.72019151 6.60972671,9.7021529 L6.63735404,9.64761699 C6.64641408,9.62929833 6.66015321,9.61563346 6.67857143,9.60662239 L6.71978882,9.55208649 C6.79289027,9.49741055 6.86364803,9.47472638 6.93206211,9.48403398 C7.00047619,9.49334157 7.04843064,9.52969472 7.07592547,9.59309344 C7.10340373,9.62945071 7.11480331,9.6703094 7.11012422,9.7156695 C7.10544513,9.7610296 7.091706,9.80421107 7.06890683,9.8452139 C7.04610766,9.88621673 7.01643064,9.92489266 6.97987578,9.9612417 L6.97990062,9.96085869 Z M11.8454907,7.11154903 C11.9004638,7.11154903 11.9507536,7.09788417 11.9963602,7.07055444 C12.0419669,7.04322471 12.0785176,7.00920257 12.1060124,6.96848803 C12.1335072,6.92777349 12.1517847,6.88459202 12.1608447,6.83894363 C12.1699048,6.82993256 12.1744348,6.8162677 12.1744348,6.79794903 C12.2840745,5.76180798 11.918588,5.17103938 11.0779752,5.02564324 C10.8312008,4.9802749 10.6027039,4.97576937 10.3924845,5.01212664 C10.3284513,5.01212664 10.2736315,5.02797014 10.2280248,5.05965714 C10.1824182,5.09134414 10.1435321,5.13220283 10.1113665,5.1822332 C10.0792008,5.23226358 10.0632712,5.28446435 10.0635776,5.33883552 C10.0635776,5.42985225 10.0955942,5.50705997 10.1596273,5.57045869 C10.2236605,5.6338574 10.3012878,5.6657009 10.3925093,5.66598919 C11.1053458,5.50226615 11.4891014,5.72952793 11.5437764,6.34777452 C11.5621946,6.50218996 11.5529855,6.64759434 11.5161491,6.78398764 C11.5161491,6.87500438 11.5481656,6.9522121 11.6121988,7.01561081 C11.6762319,7.07900952 11.7538592,7.11085302 11.8450807,7.11114131 L11.8454907,7.11154903 Z M11.6126087,3.26768185 C11.2105797,3.17666512 10.6714203,3.19484376 9.99513043,3.32221776 C9.98607039,3.32221776 9.97686128,3.32672329 9.96750311,3.33573436 L9.95391304,3.36321236 L9.94032298,3.37672896 C9.83974327,3.40405869 9.75743685,3.46091326 9.69340373,3.54729266 C9.6293706,3.63367207 9.59735404,3.72687156 9.59735404,3.82689112 C9.59735404,3.96327619 9.64310973,4.07683707 9.73462112,4.16757375 C9.82613251,4.25831042 9.93578054,4.30381879 10.0635652,4.30409884 L10.1047826,4.30409884 C10.1138427,4.30409884 10.1344555,4.29959331 10.1666211,4.29058224 C10.1987867,4.28157117 10.2329938,4.27473874 10.2692422,4.27008494 C10.3054907,4.26543115 10.3443768,4.25627181 10.3859006,4.24260695 C10.4274244,4.22894208 10.4639752,4.21527722 10.4955528,4.20161236 C10.5271304,4.18794749 10.588824,4.18111506 10.6806335,4.18111506 C10.7724431,4.18111506 10.8844265,4.18794749 11.0165839,4.20161236 C11.1487412,4.21527722 11.2949358,4.24929936 11.4551677,4.30367876 C11.6153996,4.35805817 11.7753333,4.42625071 11.9349689,4.50825637 C12.0946046,4.59026203 12.2545383,4.70382291 12.4147702,4.848939 C12.5750021,4.99405508 12.714323,5.16213951 12.8327329,5.35319228 C13.0704472,5.88944144 13.1162029,6.40751197 12.97,6.90740386 C12.97,6.91641493 12.9676646,6.92557426 12.9629938,6.93488185 C12.958323,6.94418945 12.9514534,6.96687362 12.9423851,7.00293436 C12.9333168,7.03899511 12.9241077,7.07301725 12.9147578,7.10500077 C12.9054079,7.1369843 12.8961988,7.17784299 12.8871304,7.22757683 C12.8780621,7.27731068 12.8735321,7.32049215 12.8735404,7.35712124 C12.8735404,7.43883861 12.8963478,7.50703115 12.9419627,7.56169884 C12.9875776,7.61636654 13.0447412,7.65504247 13.1134534,7.67772664 C13.1821656,7.70041081 13.2621366,7.71174878 13.3533665,7.71174054 C13.6092091,7.71174054 13.7599337,7.55717683 13.8055404,7.24804942 C13.9151801,6.89355367 13.9768737,6.5550538 13.9906211,6.23254981 C14.0043685,5.91004582 13.9815611,5.62607773 13.9221988,5.38064556 C13.8628364,5.13521338 13.7738054,4.90576885 13.6551056,4.69231197 C13.5364058,4.47885508 13.3992795,4.29710167 13.2437267,4.14705174 C13.0881739,3.9970018 12.9144969,3.86061673 12.7226957,3.73789653 C12.5308944,3.61517632 12.3458137,3.51746718 12.1674534,3.44476911 C11.9890932,3.37207104 11.8040124,3.31303784 11.6122112,3.2676695 L11.6126087,3.26768185 Z" id="Shape" fill="#333333" fill-rule="nonzero"></path>
            </g>
        </g>
    </g>
</svg>