<?xml version="1.0" encoding="UTF-8"?>
<svg width="16px" height="16px" viewBox="0 0 16 16" version="1.1" xmlns="http://www.w3.org/2000/svg" xmlns:xlink="http://www.w3.org/1999/xlink">
    <!-- Generator: Sketch 43.2 (39069) - http://www.bohemiancoding.com/sketch -->
    <title>微信1</title>
    <desc>Created with Sketch.</desc>
    <defs></defs>
    <g id="Symbols" stroke="none" stroke-width="1" fill="none" fill-rule="evenodd">
        <g id="微信1">
            <g id="微信">
                <rect id="Rectangle-6" stroke="#333333" stroke-width="0.5" x="0.25" y="0.25" width="15.5" height="15.5"></rect>
                <g id="微信-(6)" transform="translate(2.666667, 3.333333)" fill-rule="nonzero" fill="#000000">
                    <path d="M9.07196799,5.40443125 C8.80156502,5.40443125 8.58133538,5.19030036 8.58133538,4.92458264 C8.58133538,4.66031421 8.80155208,4.44618332 9.07196799,4.44618332 C9.34239684,4.44618332 9.5626006,4.66031421 9.5626006,4.92458264 C9.5626006,5.19030036 9.34239684,5.40443125 9.07196799,5.40443125 M6.54821553,5.40443125 C6.27778668,5.40443125 6.05758292,5.19030036 6.05758292,4.92458264 C6.05758292,4.66031421 6.27778668,4.44618332 6.54821553,4.44618332 C6.81861851,4.44618332 7.03882227,4.66031421 7.03882227,4.92458264 C7.03880933,5.19030036 6.81861851,5.40443125 6.54821553,5.40443125 M11.3253175,6.08610438 C11.3253175,4.53575123 9.89597253,3.26639568 8.08441493,3.15696266 C7.99965848,3.15250238 7.91473383,3.14940393 7.82982212,3.14940393 C5.89878263,3.14940393 4.33417152,4.46442424 4.33417152,6.08610438 C4.33417152,6.33063264 4.37041069,6.56745223 4.43797262,6.79373958 C4.81372925,8.07392723 6.18962755,9.02297974 7.82980918,9.02297974 C8.38799078,9.02297974 8.91470731,8.91353422 9.38167643,8.71765674 L10.1663626,9.23547394 C10.1663626,9.23547394 10.3755173,9.37664116 10.3551013,9.10482649 L10.1333579,8.29399267 C10.8646362,7.75644779 11.3253175,6.96680341 11.3253175,6.08610438" id="Shape"></path>
                    <path d="M2.47714999,2.78342363 C2.20659176,2.78342363 1.98651738,2.56944266 1.98651738,2.30519922 C1.98651738,2.03945652 2.20659176,1.82533812 2.47714999,1.82533812 C2.74910552,1.82533812 2.9677826,2.03946901 2.9677826,2.30519922 C2.9677826,2.56944266 2.74910552,2.78342363 2.47714999,2.78342363 M5.56695031,1.82533812 C5.83753442,1.82533812 6.05758292,2.03946901 6.05758292,2.30519922 C6.05758292,2.56944266 5.83753442,2.78342363 5.56695031,2.78342363 C5.29499479,2.78342363 5.0763177,2.56944266 5.0763177,2.30519922 C5.0763177,2.03945652 5.29499479,1.82533812 5.56695031,1.82533812 M7.82982212,2.90487567 C7.90522444,2.90487567 7.97908715,2.90798662 8.05310511,2.91109757 C7.76531355,1.26953983 6.0827731,0.00909234833 4.04961444,0.00909234833 C1.81515435,0.00909234833 0.00359674768,1.5323215 0.00359674768,3.40906216 C0.00359674768,4.45537874 0.566552449,5.39065061 1.45029147,6.01478988 L1.1514509,7.10353534 C1.1514509,7.10353534 1.04933173,7.46491793 1.43616323,7.30253627 L2.55099976,6.56747722 C3.01491552,6.72391184 3.51967636,6.81051872 4.0496015,6.81051872 C4.09520774,6.81051872 4.13913205,6.80740777 4.18319868,6.80740777 C4.11871598,6.57503596 4.0841458,6.33361865 4.0841458,6.08612936 C4.08415874,4.33230251 5.7650302,2.90487567 7.82982212,2.90487567" id="Shape"></path>
                </g>
            </g>
        </g>
    </g>
</svg>