<?xml version="1.0" encoding="UTF-8"?>
<svg width="16px" height="16px" viewBox="0 0 16 16" version="1.1" xmlns="http://www.w3.org/2000/svg" xmlns:xlink="http://www.w3.org/1999/xlink">
    <!-- Generator: Sketch 43.2 (39069) - http://www.bohemiancoding.com/sketch -->
    <title>站酷2</title>
    <desc>Created with Sketch.</desc>
    <defs></defs>
    <g id="Symbols" stroke="none" stroke-width="1" fill="none" fill-rule="evenodd">
        <g id="站酷2">
            <g id="站酷">
                <rect id="Rectangle-6" fill="#EB1E27" x="0" y="0" width="16" height="16"></rect>
                <g transform="translate(2.666667, 2.666667)" id="Shape" fill-rule="nonzero" fill="#FFFFFF">
                    <path d="M10.7986546,5.00812046 C10.4787271,5.18735893 10.0214247,5.27642758 9.63968998,5.32050439 C10.2451976,4.80025223 10.8330022,4.20746407 11.0707043,3.46174086 C11.3931324,2.45008343 11.4029043,1.51228022 11.1013087,0.510657156 C11.0750763,0.423589167 11.0018098,0.359304024 10.9127271,0.345206258 C10.8228007,0.329418007 10.7345464,0.369090251 10.682726,0.443270184 C9.88280733,1.5950832 8.82499838,2.32971741 7.66894843,2.54687559 C8.01447942,1.84408153 8.39558518,1.05079197 8.31337506,0.221521325 C8.30421674,0.129831633 8.24365217,0.0515883092 8.15705467,0.0210354201 C8.07108612,-0.00937788353 7.97493143,0.0128776437 7.91080785,0.0788067582 C6.68523445,1.34057917 5.70693568,1.60687012 4.52548175,1.62738864 C3.2210118,1.65010945 1.97525019,2.25815852 1.10810919,3.29587123 C0.248040179,4.32463519 -0.132666726,5.65157677 0.0636158589,6.93655078 C0.378956594,9.00412859 1.90509777,10.5515008 3.95182117,10.8784632 C4.21012568,10.9197019 4.46615977,10.9398637 4.71822066,10.9398637 C6.39922488,10.9398637 7.90767838,10.0410503 8.76961894,8.47956489 C8.86785994,8.30195487 9.02918137,8.12761728 9.21214833,8.00083053 C10.0443282,7.42517993 10.6462921,6.68013911 11.0007667,5.78569931 C11.0496877,5.66207641 11.085692,5.50982375 11.1171249,5.37545306 L11.1414857,5.27413223 C11.1645886,5.18227193 11.1310848,5.08515406 11.0565603,5.0275068 C10.9820358,4.96987506 10.8806653,4.96250824 10.7986546,5.00812046 Z M0.546751721,6.58522354 C0.744276895,7.21315526 1.95840624,7.42338088 1.95840624,7.42338088 C0.944931538,8.52421555 0.546751721,6.58522354 0.546751721,6.58522354 Z M3.47871799,7.42338088 C3.47871799,7.42338088 5.95651137,7.13376427 6.94375369,6.27073037 C6.94375371,6.27073037 5.50586681,9.58548655 3.47871799,7.42338088 Z"></path>
                </g>
            </g>
        </g>
    </g>
</svg>