<?xml version="1.0" encoding="UTF-8"?>
<svg width="20px" height="116px" viewBox="0 0 20 116" version="1.1" xmlns="http://www.w3.org/2000/svg" xmlns:xlink="http://www.w3.org/1999/xlink">
    <!-- Generator: Sketch 43.1 (39012) - http://www.bohemiancoding.com/sketch -->
    <title>关闭</title>
    <desc>Created with Sketch.</desc>
    <defs>
        <polygon id="path-1" points="5.48167847 10.962406 10.962406 10.962406 10.962406 0.000966956866 0.000950929956 0.000966956866 0.000950929956 10.962406 5.48167847 10.962406"></polygon>
        <polygon id="path-3" points="8.45550356 0 0 0 0 8.4555089 8.45550356 8.4555089 8.45550356 0"></polygon>
        <polygon id="path-5" points="19.8947368 19.8947368 19.8947368 5.34230312e-06 5.34230276e-06 5.34230312e-06 5.34230276e-06 19.8947368 9.94737109 19.8947368"></polygon>
        <polygon id="path-7" points="5.48167847 10.962406 10.962406 10.962406 10.962406 0.000966956866 0.000950929956 0.000966956866 0.000950929956 10.962406 5.48167847 10.962406"></polygon>
        <polygon id="path-9" points="8.45550356 0 0 0 0 8.4555089 8.45550356 8.4555089 8.45550356 0"></polygon>
        <polygon id="path-11" points="9.94737109 19.8947368 19.8947368 19.8947368 19.8947368 5.34230312e-06 5.34230313e-06 5.34230312e-06 5.34230313e-06 19.8947368 9.94737109 19.8947368"></polygon>
    </defs>
    <g id="Symbols" stroke="none" stroke-width="1" fill="none" fill-rule="evenodd">
        <g id="24px关闭1" transform="translate(-2.000000, -2.000000)">
            <g id="关闭" transform="translate(2.000000, 2.000000)">
                <g id="Group-3" transform="translate(8.932331, 8.932331)">
                    <mask id="mask-2" fill="white">
                        <use xlink:href="#path-1"></use>
                    </mask>
                    <g id="Clip-2"></g>
                    <path d="M9.93668381,10.962406 C9.67418441,10.962406 9.41166363,10.8622485 9.21139137,10.6619763 L0.301391373,1.75197626 C-0.0991958844,1.35141037 -0.0991958844,0.701957262 0.301391373,0.301391373 C0.701957262,-0.0991745152 1.35141037,-0.0991745152 1.75197626,0.301391373 L10.6619763,9.21139137 C11.0625635,9.61195726 11.0625635,10.2614104 10.6619763,10.6619763 C10.4616826,10.8622485 10.1991832,10.962406 9.93668381,10.962406" id="Fill-1" fill="#828282" mask="url(#mask-2)"></path>
                </g>
                <g id="Group-6">
                    <mask id="mask-4" fill="white">
                        <use xlink:href="#path-3"></use>
                    </mask>
                    <g id="Clip-5"></g>
                    <path d="M7.4297867,8.4555089 C7.1672873,8.4555089 6.90478789,8.35537277 6.70449426,8.15507915 L0.300419074,1.75100396 C-0.100146814,1.35043807 -0.100146814,0.701006332 0.300419074,0.300419074 C0.700984962,-0.100146814 1.35045944,-0.100146814 1.75102533,0.300419074 L8.15507915,6.70449426 C8.55564503,7.10506015 8.55564503,7.75451326 8.15507915,8.15507915 C7.95478552,8.35537277 7.69228611,8.4555089 7.4297867,8.4555089" id="Fill-4" fill="#828282" mask="url(#mask-4)"></path>
                </g>
                <g id="Group-9">
                    <mask id="mask-6" fill="white">
                        <use xlink:href="#path-5"></use>
                    </mask>
                    <g id="Clip-8"></g>
                    <path d="M1.0257222,19.8947368 C0.763222794,19.8947368 0.500723387,19.7945793 0.300429759,19.5943071 C-0.10013613,19.1937412 -0.10013613,18.5442881 0.300429759,18.1437222 L18.1437222,0.300429759 C18.5442881,-0.10013613 19.1937412,-0.10013613 19.5943071,0.300429759 C19.9948943,0.700995647 19.9948943,1.35044875 19.5943071,1.75101464 L1.75101464,19.5943071 C1.55072101,19.7945793 1.28822161,19.8947368 1.0257222,19.8947368" id="Fill-7" fill="#828282" mask="url(#mask-6)"></path>
                </g>
            </g>
        </g>
        <g id="24px关闭4" transform="translate(-2.000000, 94.000000)">
            <g id="关闭" transform="translate(2.000000, 2.000000)">
                <g id="Group-3" transform="translate(8.932331, 8.932331)">
                    <mask id="mask-8" fill="white">
                        <use xlink:href="#path-7"></use>
                    </mask>
                    <g id="Clip-2"></g>
                    <path d="M9.93668381,10.962406 C9.67418441,10.962406 9.41166363,10.8622485 9.21139137,10.6619763 L0.301391373,1.75197626 C-0.0991958844,1.35141037 -0.0991958844,0.701957262 0.301391373,0.301391373 C0.701957262,-0.0991745152 1.35141037,-0.0991745152 1.75197626,0.301391373 L10.6619763,9.21139137 C11.0625635,9.61195726 11.0625635,10.2614104 10.6619763,10.6619763 C10.4616826,10.8622485 10.1991832,10.962406 9.93668381,10.962406" id="Fill-1" fill="#FFFFFF" mask="url(#mask-8)"></path>
                </g>
                <g id="Group-6">
                    <mask id="mask-10" fill="white">
                        <use xlink:href="#path-9"></use>
                    </mask>
                    <g id="Clip-5"></g>
                    <path d="M7.4297867,8.4555089 C7.1672873,8.4555089 6.90478789,8.35537277 6.70449426,8.15507915 L0.300419074,1.75100396 C-0.100146814,1.35043807 -0.100146814,0.701006332 0.300419074,0.300419074 C0.700984962,-0.100146814 1.35045944,-0.100146814 1.75102533,0.300419074 L8.15507915,6.70449426 C8.55564503,7.10506015 8.55564503,7.75451326 8.15507915,8.15507915 C7.95478552,8.35537277 7.69228611,8.4555089 7.4297867,8.4555089" id="Fill-4" fill="#FFFFFF" mask="url(#mask-10)"></path>
                </g>
                <g id="Group-9">
                    <mask id="mask-12" fill="white">
                        <use xlink:href="#path-11"></use>
                    </mask>
                    <g id="Clip-8"></g>
                    <path d="M1.0257222,19.8947368 C0.763222794,19.8947368 0.500723387,19.7945793 0.300429759,19.5943071 C-0.10013613,19.1937412 -0.10013613,18.5442881 0.300429759,18.1437222 L18.1437222,0.300429759 C18.5442881,-0.10013613 19.1937412,-0.10013613 19.5943071,0.300429759 C19.9948943,0.700995647 19.9948943,1.35044875 19.5943071,1.75101464 L1.75101464,19.5943071 C1.55072101,19.7945793 1.28822161,19.8947368 1.0257222,19.8947368" id="Fill-7" fill="#FFFFFF" mask="url(#mask-12)"></path>
                </g>
            </g>
        </g>
    </g>
</svg>