<?xml version="1.0" encoding="UTF-8"?>
<svg width="97px" height="40px" viewBox="0 0 97 40" version="1.1" xmlns="http://www.w3.org/2000/svg" xmlns:xlink="http://www.w3.org/1999/xlink">
    <!-- Generator: Sketch 43.2 (39069) - http://www.bohemiancoding.com/sketch -->
    <title>LOGO</title>
    <desc>Created with Sketch.</desc>
    <defs>
        <path d="M95.1271373,3.39019608 C95.1271373,1.96588235 93.9718431,0.811372549 92.5483137,0.811372549 C91.124,0.811372549 89.9687059,1.96588235 89.9687059,3.39019608 C89.9687059,4.8145098 91.124,5.96980392 92.5483137,5.96980392 C93.9718431,5.96980392 95.1271373,4.8145098 95.1271373,3.39019608 Z" id="path-1"></path>
        <filter x="-38.8%" y="-38.8%" width="177.5%" height="177.5%" filterUnits="objectBoundingBox" id="filter-2">
            <feGaussianBlur stdDeviation="1.5" in="SourceAlpha" result="shadowBlurInner1"></feGaussianBlur>
            <feOffset dx="0" dy="1" in="shadowBlurInner1" result="shadowOffsetInner1"></feOffset>
            <feComposite in="shadowOffsetInner1" in2="SourceAlpha" operator="arithmetic" k2="-1" k3="1" result="shadowInnerInner1"></feComposite>
            <feColorMatrix values="0 0 0 0 0   0 0 0 0 0   0 0 0 0 0  0 0 0 1 0" type="matrix" in="shadowInnerInner1"></feColorMatrix>
        </filter>
        <polygon id="path-3" points="90.4352941 22.8272157 94.6596078 22.8272157 94.6596078 6.99505882 90.4352941 6.99505882"></polygon>
        <filter x="-47.3%" y="-12.6%" width="194.7%" height="125.3%" filterUnits="objectBoundingBox" id="filter-4">
            <feGaussianBlur stdDeviation="1.5" in="SourceAlpha" result="shadowBlurInner1"></feGaussianBlur>
            <feOffset dx="0" dy="1" in="shadowBlurInner1" result="shadowOffsetInner1"></feOffset>
            <feComposite in="shadowOffsetInner1" in2="SourceAlpha" operator="arithmetic" k2="-1" k3="1" result="shadowInnerInner1"></feComposite>
            <feColorMatrix values="0 0 0 0 0   0 0 0 0 0   0 0 0 0 0  0 0 0 1 0" type="matrix" in="shadowInnerInner1"></feColorMatrix>
        </filter>
        <polygon id="path-5" points="67.5298824 6.52784314 64.9573333 13.5772549 63.7620392 16.8572549 62.6875294 13.8980392 59.9941961 6.52784314 55.2232157 6.52784314 61.6020392 22.7694118 59.4287059 28.7254902 63.7173333 28.7254902 72.3008627 6.52784314"></polygon>
        <filter x="-11.7%" y="-9.0%" width="123.4%" height="118.0%" filterUnits="objectBoundingBox" id="filter-6">
            <feGaussianBlur stdDeviation="1.5" in="SourceAlpha" result="shadowBlurInner1"></feGaussianBlur>
            <feOffset dx="0" dy="1" in="shadowBlurInner1" result="shadowOffsetInner1"></feOffset>
            <feComposite in="shadowOffsetInner1" in2="SourceAlpha" operator="arithmetic" k2="-1" k3="1" result="shadowInnerInner1"></feComposite>
            <feColorMatrix values="0 0 0 0 0   0 0 0 0 0   0 0 0 0 0  0 0 0 1 0" type="matrix" in="shadowInnerInner1"></feColorMatrix>
        </filter>
        <polygon id="path-7" points="13.3329412 -0.000156862745 13.3329412 9.29003922 5.0145098 9.29003922 5.0145098 -0.000156862745 0.790196078 -0.000156862745 0.790196078 22.8265098 5.0145098 22.8265098 5.0145098 13.5496471 13.3329412 13.5496471 13.3329412 22.8265098 17.5572549 22.8265098 17.5572549 -0.000156862745"></polygon>
        <filter x="-11.9%" y="-8.8%" width="123.9%" height="117.5%" filterUnits="objectBoundingBox" id="filter-8">
            <feGaussianBlur stdDeviation="1.5" in="SourceAlpha" result="shadowBlurInner1"></feGaussianBlur>
            <feOffset dx="0" dy="1" in="shadowBlurInner1" result="shadowOffsetInner1"></feOffset>
            <feComposite in="shadowOffsetInner1" in2="SourceAlpha" operator="arithmetic" k2="-1" k3="1" result="shadowInnerInner1"></feComposite>
            <feColorMatrix values="0 0 0 0 0   0 0 0 0 0   0 0 0 0 0  0 0 0 1 0" type="matrix" in="shadowInnerInner1"></feColorMatrix>
        </filter>
        <polygon id="path-9" points="49.5247059 22.8272157 53.7490196 22.8272157 53.7490196 0.000549019608 49.5247059 0.000549019608"></polygon>
        <filter x="-47.3%" y="-8.8%" width="194.7%" height="117.5%" filterUnits="objectBoundingBox" id="filter-10">
            <feGaussianBlur stdDeviation="1.5" in="SourceAlpha" result="shadowBlurInner1"></feGaussianBlur>
            <feOffset dx="0" dy="1" in="shadowBlurInner1" result="shadowOffsetInner1"></feOffset>
            <feComposite in="shadowOffsetInner1" in2="SourceAlpha" operator="arithmetic" k2="-1" k3="1" result="shadowInnerInner1"></feComposite>
            <feColorMatrix values="0 0 0 0 0   0 0 0 0 0   0 0 0 0 0  0 0 0 1 0" type="matrix" in="shadowInnerInner1"></feColorMatrix>
        </filter>
        <path d="M88.1364706,12.8747451 C88.0156863,8.58219608 85.5419608,6.18611765 82.0556863,6.36258824 C80.5294118,6.44023529 79.067451,7.19239216 78.0635294,8.40258824 L78.0635294,0.000235294118 L73.8392157,0.000235294118 L73.8392157,22.826902 L78.0635294,22.826902 C78.0635294,22.826902 78.0870588,15.3233725 78.1294118,13.6025882 C78.1882353,11.2041569 79.1615686,9.89905882 80.7764706,9.772 C82.5780392,9.63003922 83.8596078,11.197098 83.9192157,13.9367059 C83.9898039,17.1406275 83.9301961,22.826902 83.9301961,22.826902 L88.1537255,22.826902 C88.1537255,22.826902 88.2611765,17.3241569 88.1364706,12.8747451" id="path-11"></path>
        <filter x="-13.9%" y="-8.8%" width="127.9%" height="117.5%" filterUnits="objectBoundingBox" id="filter-12">
            <feGaussianBlur stdDeviation="1.5" in="SourceAlpha" result="shadowBlurInner1"></feGaussianBlur>
            <feOffset dx="0" dy="1" in="shadowBlurInner1" result="shadowOffsetInner1"></feOffset>
            <feComposite in="shadowOffsetInner1" in2="SourceAlpha" operator="arithmetic" k2="-1" k3="1" result="shadowInnerInner1"></feComposite>
            <feColorMatrix values="0 0 0 0 0   0 0 0 0 0   0 0 0 0 0  0 0 0 1 0" type="matrix" in="shadowInnerInner1"></feColorMatrix>
        </filter>
        <path d="M26.8956863,10.4011765 C24.5545098,10.4011765 22.6494118,12.3062745 22.6494118,14.647451 C22.6494118,16.9886275 24.5545098,18.8937255 26.8956863,18.8937255 L39.8956863,18.8937255 C42.2368627,18.8937255 44.1419608,16.9886275 44.1419608,14.647451 C44.1419608,12.3062745 42.2368627,10.4011765 39.8956863,10.4011765 L26.8956863,10.4011765 Z M39.8956863,22.8152941 L26.8956863,22.8152941 C22.3921569,22.8152941 18.7278431,19.1509804 18.7278431,14.647451 C18.7278431,10.1439216 22.3921569,6.47960784 26.8956863,6.47960784 L39.8956863,6.47960784 C44.3992157,6.47960784 48.0635294,10.1439216 48.0635294,14.647451 C48.0635294,19.1509804 44.3992157,22.8152941 39.8956863,22.8152941 L39.8956863,22.8152941 Z" id="path-13"></path>
        <filter x="-5.1%" y="-9.2%" width="110.2%" height="118.4%" filterUnits="objectBoundingBox" id="filter-14">
            <feGaussianBlur stdDeviation="1" in="SourceAlpha" result="shadowBlurInner1"></feGaussianBlur>
            <feOffset dx="0" dy="1" in="shadowBlurInner1" result="shadowOffsetInner1"></feOffset>
            <feComposite in="shadowOffsetInner1" in2="SourceAlpha" operator="arithmetic" k2="-1" k3="1" result="shadowInnerInner1"></feComposite>
            <feColorMatrix values="0 0 0 0 0.694223002   0 0 0 0 0   0 0 0 0 0.030478083  0 0 0 1 0" type="matrix" in="shadowInnerInner1"></feColorMatrix>
        </filter>
    </defs>
    <g id="Symbols" stroke="none" stroke-width="1" fill="none" fill-rule="evenodd">
        <g id="LOGO">
            <g>
                <g id="Fill-1">
                    <use fill="#4F4F4F" fill-rule="evenodd" xlink:href="#path-1"></use>
                    <use fill="black" fill-opacity="1" filter="url(#filter-2)" xlink:href="#path-1"></use>
                </g>
                <g id="Fill-3">
                    <use fill="#4F4F4F" fill-rule="evenodd" xlink:href="#path-3"></use>
                    <use fill="black" fill-opacity="1" filter="url(#filter-4)" xlink:href="#path-3"></use>
                </g>
                <g id="Fill-5">
                    <use fill="#4F4F4F" fill-rule="evenodd" xlink:href="#path-5"></use>
                    <use fill="black" fill-opacity="1" filter="url(#filter-6)" xlink:href="#path-5"></use>
                </g>
                <g id="Fill-6">
                    <use fill="#4F4F4F" fill-rule="evenodd" xlink:href="#path-7"></use>
                    <use fill="black" fill-opacity="1" filter="url(#filter-8)" xlink:href="#path-7"></use>
                </g>
                <g id="Fill-7">
                    <use fill="#4F4F4F" fill-rule="evenodd" xlink:href="#path-9"></use>
                    <use fill="black" fill-opacity="1" filter="url(#filter-10)" xlink:href="#path-9"></use>
                </g>
                <g id="Fill-8">
                    <use fill="#4F4F4F" fill-rule="evenodd" xlink:href="#path-11"></use>
                    <use fill="black" fill-opacity="1" filter="url(#filter-12)" xlink:href="#path-11"></use>
                </g>
                <g id="Fill-9">
                    <use fill="#EB1E27" fill-rule="evenodd" xlink:href="#path-13"></use>
                    <use fill="black" fill-opacity="1" filter="url(#filter-14)" xlink:href="#path-13"></use>
                </g>
                <path d="M4.82227451,37.0157647 C4.90776471,36.2902745 4.99403922,35.5804706 5.04815686,35.0659608 L2.05207843,35.0659608 C1.91952941,35.7671373 1.78698039,36.4620392 1.66933333,37.0157647 L4.82227451,37.0157647 Z M6.9132549,38.7875294 L6.9132549,39.1545882 L0.00031372549,39.1545882 L0.00031372549,38.7875294 L4.57992157,38.7875294 C4.64266667,38.3585098 4.71247059,37.8667451 4.77521569,37.3749804 L1.17835294,37.3749804 C1.42776471,36.3608627 1.77129412,34.589098 1.9587451,33.309098 L0.273254902,33.309098 L0.273254902,32.9436078 L6.67952941,32.9436078 L6.67952941,33.309098 L2.36423529,33.309098 C2.28658824,33.738902 2.20031373,34.2149804 2.12266667,34.7067451 L5.12658824,34.7067451 L5.19717647,34.6824314 L5.4614902,34.7216471 C5.36031373,35.736549 5.15796078,37.4918431 4.95482353,38.7875294 L6.9132549,38.7875294 Z" id="Fill-10" fill="#333333"></path>
                <path d="M18.0369412,34.4958431 C17.9200784,37.7342745 17.818902,38.8111373 17.5451765,39.1381961 C17.4047843,39.3107451 17.2643922,39.3570196 17.0306667,39.380549 C16.7961569,39.3876078 16.3592941,39.380549 15.9302745,39.3483922 C15.9224314,39.2323137 15.8832157,39.0911373 15.8134118,38.982902 C16.296549,39.0221176 16.749098,39.0221176 16.9059608,39.0221176 C17.0541961,39.0291765 17.1475294,39.0134902 17.2181176,38.9123137 C17.444,38.6699608 17.5608627,37.6095686 17.6698824,34.6362353 L16.2816471,34.6362353 C16.1718431,36.5476078 15.8361569,38.3978039 14.6659608,39.4746667 C14.6118431,39.3876078 14.4628235,39.2715294 14.3616471,39.2244706 C15.4855686,38.2338824 15.8212549,36.4542745 15.9224314,34.6362353 L14.6894902,34.6362353 L14.6894902,34.2691765 L15.9381176,34.2691765 C15.9616471,33.6927059 15.9694902,33.1146667 15.9694902,32.5523137 L16.3357647,32.5523137 C16.3279216,33.1146667 16.3279216,33.6927059 16.296549,34.2691765 L18.0369412,34.2691765 L18.0369412,34.4958431 Z M11.4667451,33.4268235 L14.4400784,33.4268235 L14.4400784,33.0762353 L11.4667451,33.0762353 L11.4667451,33.4268235 Z M14.298902,38.4362353 C14.2526275,38.2644706 14.1898824,38.0621176 14.1122353,37.835451 C11.8259608,38.302902 11.576549,38.3734902 11.4196863,38.4668235 L11.4196863,38.4597647 C11.3969412,38.3734902 11.3341961,38.1781961 11.2879216,38.0927059 C11.3969412,38.0621176 11.5138039,37.8276078 11.6306667,37.5311373 C11.7475294,37.2652549 12.1145882,36.2668235 12.3255686,35.3068235 L11.1781176,35.3068235 L11.1781176,34.9562353 L14.5883137,34.9562353 L14.5883137,35.3068235 L12.7153725,35.3068235 C12.4894902,36.2197647 12.1694902,37.195451 11.8338039,37.9444706 L14.0024314,37.515451 C13.8541961,37.0707451 13.6596863,36.5868235 13.4879216,36.1734902 L13.8079216,36.0872157 C14.1200784,36.8048627 14.4785098,37.7648627 14.6353725,38.3115294 L14.298902,38.4362353 Z" id="Fill-11" fill="#333333"></path>
                <path d="M25.9772549,35.7056471 L28.107451,35.7056471 L28.107451,34.8162353 L25.9772549,34.8162353 L25.9772549,35.7056471 Z M25.9772549,34.5032941 L28.107451,34.5032941 L28.107451,33.6374118 L25.9772549,33.6374118 L25.9772549,34.5032941 Z M27.4988235,37.1958431 C27.9670588,37.8899608 28.7239216,38.5919216 29.4031373,38.9276078 C29.3090196,38.9981961 29.1843137,39.1378039 29.1145098,39.2397647 C28.4666667,38.8421176 27.7098039,38.1001569 27.2337255,37.3511373 L27.2337255,39.4821176 L26.8666667,39.4821176 L26.8666667,37.3511373 C26.3905882,38.1558431 25.6109804,38.8883922 24.8690196,39.2711373 C24.8070588,39.1770196 24.6894118,39.0374118 24.6039216,38.9589804 C25.3529412,38.6389804 26.1254902,37.9370196 26.5780392,37.1958431 L24.9160784,37.1958431 L24.9160784,36.8601569 L26.8666667,36.8601569 L26.8666667,36.0327059 L25.6258824,36.0327059 L25.6258824,33.6374118 L24.8462745,33.6374118 L24.8462745,33.2938824 L25.6258824,33.2938824 L25.6258824,32.4123137 L25.9772549,32.4123137 L25.9772549,33.2938824 L28.107451,33.2938824 L28.107451,32.4123137 L28.4666667,32.4123137 L28.4666667,33.2938824 L29.2235294,33.2938824 L29.2235294,33.6374118 L28.4666667,33.6374118 L28.4666667,36.0327059 L27.2337255,36.0327059 L27.2337255,36.8601569 L29.2,36.8601569 L29.2,37.1958431 L27.4988235,37.1958431 Z M23.3247059,34.4099608 C23.1686275,35.2209412 22.9968627,36.0170196 22.8329412,36.6334902 C23.1137255,36.8287843 23.4180392,37.0546667 23.6909804,37.2970196 C23.987451,36.548 24.1827451,35.5958431 24.2760784,34.4099608 L23.3247059,34.4099608 Z M24.6431373,34.0821176 C24.5576471,35.5566275 24.3309804,36.6883922 23.9796078,37.5542745 C24.2917647,37.8507451 24.5647059,38.1558431 24.7443137,38.413098 L24.4635294,38.6703529 C24.3152941,38.4444706 24.0894118,38.1785882 23.8156863,37.9134902 C23.465098,38.615451 23.012549,39.1150588 22.4509804,39.4656471 C22.3882353,39.3723137 22.2941176,39.2327059 22.2007843,39.1621176 C22.7396078,38.8578039 23.1913725,38.3581961 23.534902,37.6397647 C23.1843137,37.3283922 22.8015686,37.015451 22.427451,36.7581961 C22.6141176,36.1652549 22.8094118,35.2915294 22.9733333,34.4099608 L22.3176471,34.4099608 L22.3176471,34.0585882 L23.0431373,34.0585882 C23.1372549,33.4734902 23.2227451,32.9119216 23.2776471,32.4123137 L23.6282353,32.428 C23.5741176,32.9276078 23.48,33.4891765 23.3866667,34.0585882 L24.3623529,34.0585882 L24.425098,34.042902 L24.6431373,34.0821176 Z" id="Fill-12" fill="#333333"></path>
                <path d="M38.3103529,34.4567843 C38.7864314,35.8301176 39.6523137,37.1877647 40.5425098,37.8426667 C40.4562353,37.9132549 40.3315294,38.0536471 40.2538824,38.1477647 C39.348,37.4065882 38.4978039,35.9861961 37.9989804,34.5352157 L37.9989804,37.601098 L39.3723137,37.601098 L39.3723137,37.9524706 L37.9989804,37.9524706 L37.9989804,39.4505098 L37.6319216,39.4505098 L37.6319216,37.9524706 L36.1958431,37.9524706 L36.1958431,37.601098 L37.6319216,37.601098 L37.6319216,34.5422745 C37.1087843,36.0018824 36.242902,37.4144314 35.3378039,38.163451 C35.282902,38.0771765 35.1581961,37.9524706 35.0640784,37.8897255 C35.9542745,37.2112941 36.828,35.8301176 37.335451,34.4567843 L35.2985882,34.4567843 L35.2985882,34.0975686 L37.6319216,34.0975686 L37.6319216,32.4277647 L37.9989804,32.4277647 L37.9989804,34.0975686 L40.4327059,34.0975686 L40.4327059,34.4567843 L38.3103529,34.4567843 Z M35.4860392,32.5375686 C35.282902,33.1375686 35.0256471,33.7312941 34.7448627,34.2771765 L34.7448627,39.4740392 L34.3856471,39.4740392 L34.3856471,34.9093333 C34.1440784,35.3156078 33.8703529,35.6818824 33.6052549,35.9940392 C33.5660392,35.9156078 33.4413333,35.7446275 33.3715294,35.6583529 C34.0813333,34.8701176 34.7291765,33.6607059 35.1346667,32.4442353 L35.4860392,32.5375686 Z" id="Fill-13" fill="#333333"></path>
                <path d="M47.9128627,36.2436863 C48.2171765,36.9464314 48.6775686,37.562902 49.2705098,38.0460392 C49.863451,37.5778039 50.3552157,36.9691765 50.6595294,36.2436863 L47.9128627,36.2436863 Z M51.1505098,35.9864314 C50.8312941,36.9385882 50.2532549,37.695451 49.5591373,38.2727059 C50.1520784,38.6938824 50.8540392,38.9981961 51.6501176,39.1691765 C51.5646275,39.255451 51.4556078,39.4115294 51.408549,39.5127059 C50.5967843,39.3103529 49.8712941,38.9746667 49.2626667,38.5064314 C48.6305098,38.9668235 47.9207059,39.2868235 47.1944314,39.4899608 C47.1638431,39.3966275 47.0697255,39.2476078 46.9999216,39.1621176 C47.6783529,38.9903529 48.3575686,38.6938824 48.9740392,38.2727059 C48.3418824,37.7181961 47.8658039,37.0397647 47.5379608,36.2436863 L47.2101176,36.2436863 L47.2101176,35.8844706 L50.8461961,35.8844706 L50.9167843,35.8617255 L51.1505098,35.9864314 Z M48.4901176,33.5903529 C48.4901176,34.293098 48.2399216,35.1127059 47.1167843,35.6664314 C47.0697255,35.588 46.9450196,35.440549 46.8752157,35.3778039 C47.9363922,34.8860392 48.130902,34.1919216 48.130902,33.5825098 L48.130902,32.7166275 L50.4250196,32.7166275 L50.4250196,34.5895686 C50.4250196,34.8076078 50.448549,34.8703529 50.5654118,34.8703529 L51.1897255,34.8703529 C51.2916863,34.8703529 51.4320784,34.8546667 51.5254118,34.8389804 C51.5332549,34.9323137 51.5489412,35.0883922 51.5646275,35.1746667 C51.4783529,35.1981961 51.3379608,35.2060392 51.1975686,35.2060392 L50.5583529,35.2060392 C50.1599216,35.2060392 50.0665882,35.0421176 50.0665882,34.5738824 L50.0665882,33.068 L48.4901176,33.068 L48.4901176,33.5903529 Z M46.4069804,34.0115294 C46.1724706,33.6836863 45.6658039,33.1770196 45.2516863,32.8185882 L45.5097255,32.5840784 C45.930902,32.9268235 46.4297255,33.4185882 46.6720784,33.7393725 L46.4069804,34.0115294 Z M47.1324706,37.8201569 C47.156,37.9213333 47.2101176,38.0538824 47.2571765,38.1236863 C45.9073725,39.0374118 45.7277647,39.1621176 45.6187451,39.2946667 C45.5795294,39.2083922 45.4705098,39.0609412 45.3920784,38.9825098 C45.5167843,38.8883922 45.7826667,38.6546667 45.7826667,38.3119216 L45.7826667,35.2523137 L44.5889412,35.2523137 L44.5889412,34.8860392 L46.141098,34.8860392 L46.141098,38.4593725 L47.1324706,37.8201569 Z" id="Fill-14" fill="#333333"></path>
                <path d="M62.7979608,35.4479216 L60.7061961,35.4479216 L60.7061961,39.4745882 L60.3242353,39.4745882 L60.3242353,35.4479216 L58.2873725,35.4479216 L58.2873725,35.0730196 L60.3242353,35.0730196 L60.3242353,32.4275294 L60.7061961,32.4275294 L60.7061961,35.0730196 L62.7979608,35.0730196 L62.7979608,35.4479216 Z M57.7414902,34.0432157 C57.4912941,33.7153725 56.9689412,33.1843922 56.5399216,32.8181176 L56.7971765,32.5843922 C57.2261961,32.9436078 57.7493333,33.4345882 57.9987451,33.7545882 L57.7414902,34.0432157 Z M58.4905098,37.6871373 C58.5218824,37.7812549 58.5924706,37.9373333 58.6316863,38.0071373 C57.2261961,38.9828235 57.0395294,39.1232157 56.9297255,39.2628235 C56.8912941,39.1694902 56.7893333,39.0055686 56.7116863,38.9200784 C56.8363922,38.8494902 57.0630588,38.6385098 57.0630588,38.3192941 L57.0630588,35.2526275 L55.7673725,35.2526275 L55.7673725,34.8855686 L57.4371765,34.8855686 L57.4371765,38.389098 L58.4905098,37.6871373 Z" id="Fill-15" fill="#333333"></path>
                <path d="M70.9482353,37.6093333 C72.0023529,38.0383529 73.0941176,38.6312941 73.7498039,39.1379608 L73.5003922,39.4265882 C72.867451,38.9042353 71.8141176,38.3191373 70.7537255,37.8822745 L70.9482353,37.6093333 Z M69.6062745,35.4477647 C69.3639216,35.1748235 68.8729412,34.7771765 68.4439216,34.5269804 L68.6854902,34.2924706 C69.1066667,34.5348235 69.6062745,34.9018824 69.8486275,35.1818824 L69.6062745,35.4477647 Z M67.905098,35.5018824 C68.3576471,35.7442353 68.8964706,36.1340392 69.1537255,36.4226667 L68.92,36.7042353 C68.6619608,36.4226667 68.1317647,36.0093333 67.6792157,35.7520784 L67.905098,35.5018824 Z M67.6713725,34.8540392 L67.3043137,34.8540392 L67.3043137,33.3952157 L70.4486275,33.3952157 C70.332549,33.1301176 70.145098,32.7795294 69.9568627,32.5058039 L70.3239216,32.3967843 C70.534902,32.7089412 70.7686275,33.1301176 70.8784314,33.3952157 L73.5623529,33.3952157 L73.5623529,34.8540392 L73.1803922,34.8540392 L73.1803922,33.7544314 L67.6713725,33.7544314 L67.6713725,34.8540392 Z M73.7890196,37.0007059 L73.7890196,37.3356078 L70.4729412,37.3356078 C70.0439216,38.3740392 69.1772549,39.0524706 67.4054902,39.4352157 C67.3741176,39.3489412 67.2658824,39.2007059 67.187451,39.1152157 C68.8031373,38.7795294 69.6298039,38.2171765 70.0509804,37.3356078 L67.1090196,37.3356078 L67.1090196,37.0007059 L70.1992157,37.0007059 C70.4564706,36.2587451 70.5043137,35.330902 70.5427451,34.1756078 L70.932549,34.1756078 C70.8941176,35.3065882 70.8321569,36.236 70.5976471,37.0007059 L73.7890196,37.0007059 Z" id="Fill-16" fill="#333333"></path>
                <path d="M83.0705882,37.7265882 C83.04,37.2191373 82.8909804,36.4465882 82.7513725,35.8379608 L83.054902,35.7987451 C83.2117647,36.4003137 83.3513725,37.1642353 83.3905882,37.6716863 L83.0705882,37.7265882 Z M81.8611765,35.1822745 L84.132549,35.1822745 L84.132549,34.8465882 L81.8611765,34.8465882 L81.8611765,35.1822745 Z M81.6666667,35.9548235 C81.9239216,36.5556078 82.1498039,37.336 82.2282353,37.8356078 L81.9160784,37.921098 C81.8384314,37.4065882 81.6117647,36.6261961 81.3545098,36.0332549 L81.6666667,35.9548235 Z M84.8964706,36.0481569 C84.5537255,36.8991373 84.0619608,37.9995294 83.6478431,38.7328627 L84.9984314,38.7328627 L84.9984314,39.0763922 L81.0815686,39.0763922 L81.0815686,38.7328627 L83.305098,38.7328627 C83.7262745,37.9995294 84.2572549,36.7901176 84.5458824,35.9469804 L84.8964706,36.0481569 Z M83.2737255,32.4826667 C83.2345098,32.5916863 83.187451,32.7014902 83.1333333,32.8026667 C83.6015686,33.6222745 84.4917647,34.5665882 85.2243137,35.096 C85.1458824,35.1665882 85.052549,35.3069804 85.0062745,35.401098 C84.2956863,34.8544314 83.4690196,33.9501176 82.9545098,33.1375686 C82.4313725,34.0748235 81.7058824,34.8701176 80.9254902,35.4238431 C80.8698039,35.3618824 80.7537255,35.2136471 80.6831373,35.1352157 C81.6352941,34.5187451 82.4776471,33.5203137 82.9458824,32.3814902 L83.2737255,32.4826667 Z M80.8698039,36.0724706 C80.8698039,36.0724706 80.8627451,36.2050196 80.854902,36.2512941 C80.7145098,38.2489412 80.5976471,38.9665882 80.347451,39.216 C80.2384314,39.3414902 80.1058824,39.3877647 79.894902,39.3963922 C79.6996078,39.4042353 79.3411765,39.3963922 78.9670588,39.3728627 C78.9592157,39.2630588 78.92,39.1383529 78.8572549,39.0371765 C79.2556863,39.0763922 79.6376471,39.083451 79.7858824,39.083451 C79.9184314,39.083451 79.9968627,39.0763922 80.0588235,38.9901176 C80.2541176,38.8112941 80.3788235,38.1391373 80.5043137,36.4003137 L78.3654902,36.4003137 C78.4596078,35.7367843 78.5686275,34.5814902 78.6227451,33.7618824 L78.9592157,33.7783529 C78.9043137,34.4881569 78.8180392,35.4167843 78.7403922,36.0724706 L79.9105882,36.0724706 C80.0047059,35.2991373 80.1294118,34.0975686 80.1992157,33.1375686 L78.2870588,33.1375686 L78.2870588,32.8026667 L80.5662745,32.8026667 C80.48,33.8324706 80.3552941,35.2528627 80.2462745,36.0724706 L80.8698039,36.0724706 Z M80.1372549,37.5854118 C79.4109804,37.7963922 78.6854902,38.0230588 78.1003922,38.1948235 L78.0070588,37.8505098 C78.545098,37.7179608 79.3176471,37.4920784 80.0980392,37.2740392 L80.1372549,37.5854118 Z" id="Fill-17" fill="#333333"></path>
                <path d="M95.1777255,36.5638431 C95.0679216,36.4156078 94.8969412,36.2281569 94.7094902,36.048549 C90.8710588,36.3520784 90.5510588,36.3763922 90.3400784,36.4540392 C90.316549,36.368549 90.2694902,36.181098 90.2153725,36.0799216 C90.3628235,36.0642353 90.5345882,35.9552157 90.7463529,35.7912941 C90.9330196,35.6658039 91.5102745,35.1905098 91.9941961,34.6516863 L90.2075294,34.6516863 L90.2075294,34.3081569 L95.3730196,34.3081569 L95.3730196,34.6516863 L92.5094902,34.6516863 C92.0177255,35.1669804 91.4953725,35.6422745 90.9722353,36.0171765 L94.4208627,35.7599216 C94.1636078,35.5261961 93.8977255,35.2995294 93.6569412,35.1042353 L93.9369412,34.9097255 C94.491451,35.3387451 95.1463529,35.9473725 95.4663529,36.3450196 L95.1777255,36.5638431 Z M89.8169412,34.4493333 L89.4498824,34.4493333 L89.4498824,33.1458039 L92.6883137,33.1458039 C92.5949804,32.9269804 92.4467451,32.6618824 92.3212549,32.4595294 L92.6734118,32.3497255 C92.8373333,32.5920784 93.0161569,32.9269804 93.1094902,33.1458039 L96.0671373,33.1458039 L96.0671373,34.4493333 L95.6922353,34.4493333 L95.6922353,33.4971765 L89.8169412,33.4971765 L89.8169412,34.4493333 Z M96.2075294,38.9042353 L96.2075294,39.2556078 L89.3251765,39.2556078 L89.3251765,38.9042353 L92.5636078,38.9042353 L92.5636078,37.648549 L90.0349804,37.648549 L90.0349804,37.3042353 L92.5636078,37.3042353 L92.5636078,36.3450196 L92.9385098,36.3450196 L92.9385098,37.3042353 L95.4741961,37.3042353 L95.4741961,37.648549 L92.9385098,37.648549 L92.9385098,38.9042353 L96.2075294,38.9042353 Z" id="Fill-18" fill="#333333"></path>
            </g>
        </g>
    </g>
</svg>