<?xml version="1.0" encoding="UTF-8"?>
<svg width="95px" height="30px" viewBox="0 0 95 30" version="1.1" xmlns="http://www.w3.org/2000/svg" xmlns:xlink="http://www.w3.org/1999/xlink">
    <!-- Generator: Sketch 43.2 (39069) - http://www.bohemiancoding.com/sketch -->
    <title>LOGO3</title>
    <desc>Created with Sketch.</desc>
    <defs>
        <path d="M94.1584314,3.57882353 C94.1584314,2.1545098 93.0031373,1 91.5796078,1 C90.1552941,1 89,2.1545098 89,3.57882353 C89,5.00313725 90.1552941,6.15843137 91.5796078,6.15843137 C93.0031373,6.15843137 94.1584314,5.00313725 94.1584314,3.57882353 Z" id="path-1"></path>
        <filter x="-38.8%" y="-38.8%" width="177.5%" height="177.5%" filterUnits="objectBoundingBox" id="filter-2">
            <feGaussianBlur stdDeviation="1.5" in="SourceAlpha" result="shadowBlurInner1"></feGaussianBlur>
            <feOffset dx="0" dy="1" in="shadowBlurInner1" result="shadowOffsetInner1"></feOffset>
            <feComposite in="shadowOffsetInner1" in2="SourceAlpha" operator="arithmetic" k2="-1" k3="1" result="shadowInnerInner1"></feComposite>
            <feColorMatrix values="0 0 0 0 0   0 0 0 0 0   0 0 0 0 0  0 0 0 1 0" type="matrix" in="shadowInnerInner1"></feColorMatrix>
        </filter>
        <polygon id="path-3" points="90 22.8321569 94.2243137 22.8321569 94.2243137 7 90 7"></polygon>
        <filter x="-47.3%" y="-12.6%" width="194.7%" height="125.3%" filterUnits="objectBoundingBox" id="filter-4">
            <feGaussianBlur stdDeviation="1.5" in="SourceAlpha" result="shadowBlurInner1"></feGaussianBlur>
            <feOffset dx="0" dy="1" in="shadowBlurInner1" result="shadowOffsetInner1"></feOffset>
            <feComposite in="shadowOffsetInner1" in2="SourceAlpha" operator="arithmetic" k2="-1" k3="1" result="shadowInnerInner1"></feComposite>
            <feColorMatrix values="0 0 0 0 0   0 0 0 0 0   0 0 0 0 0  0 0 0 1 0" type="matrix" in="shadowInnerInner1"></feColorMatrix>
        </filter>
        <polygon id="path-5" points="67.3066667 7 64.7341176 14.0494118 63.5388235 17.3294118 62.4643137 14.3701961 59.7709804 7 55 7 61.3788235 23.2415686 59.2054902 29.1976471 63.4941176 29.1976471 72.0776471 7"></polygon>
        <filter x="-11.7%" y="-9.0%" width="123.4%" height="118.0%" filterUnits="objectBoundingBox" id="filter-6">
            <feGaussianBlur stdDeviation="1.5" in="SourceAlpha" result="shadowBlurInner1"></feGaussianBlur>
            <feOffset dx="0" dy="1" in="shadowBlurInner1" result="shadowOffsetInner1"></feOffset>
            <feComposite in="shadowOffsetInner1" in2="SourceAlpha" operator="arithmetic" k2="-1" k3="1" result="shadowInnerInner1"></feComposite>
            <feColorMatrix values="0 0 0 0 0   0 0 0 0 0   0 0 0 0 0  0 0 0 1 0" type="matrix" in="shadowInnerInner1"></feColorMatrix>
        </filter>
        <polygon id="path-7" points="12.5427451 0 12.5427451 9.29019608 4.22431373 9.29019608 4.22431373 0 0 0 0 22.8266667 4.22431373 22.8266667 4.22431373 13.5498039 12.5427451 13.5498039 12.5427451 22.8266667 16.7670588 22.8266667 16.7670588 0"></polygon>
        <filter x="-11.9%" y="-8.8%" width="123.9%" height="117.5%" filterUnits="objectBoundingBox" id="filter-8">
            <feGaussianBlur stdDeviation="1.5" in="SourceAlpha" result="shadowBlurInner1"></feGaussianBlur>
            <feOffset dx="0" dy="1" in="shadowBlurInner1" result="shadowOffsetInner1"></feOffset>
            <feComposite in="shadowOffsetInner1" in2="SourceAlpha" operator="arithmetic" k2="-1" k3="1" result="shadowInnerInner1"></feComposite>
            <feColorMatrix values="0 0 0 0 0   0 0 0 0 0   0 0 0 0 0  0 0 0 1 0" type="matrix" in="shadowInnerInner1"></feColorMatrix>
        </filter>
        <polygon id="path-9" points="49 22.8266667 53.2243137 22.8266667 53.2243137 0 49 0"></polygon>
        <filter x="-47.3%" y="-8.8%" width="194.7%" height="117.5%" filterUnits="objectBoundingBox" id="filter-10">
            <feGaussianBlur stdDeviation="1.5" in="SourceAlpha" result="shadowBlurInner1"></feGaussianBlur>
            <feOffset dx="0" dy="1" in="shadowBlurInner1" result="shadowOffsetInner1"></feOffset>
            <feComposite in="shadowOffsetInner1" in2="SourceAlpha" operator="arithmetic" k2="-1" k3="1" result="shadowInnerInner1"></feComposite>
            <feColorMatrix values="0 0 0 0 0   0 0 0 0 0   0 0 0 0 0  0 0 0 1 0" type="matrix" in="shadowInnerInner1"></feColorMatrix>
        </filter>
        <path d="M87.2972549,12.8745098 C87.1764706,8.58196078 84.7027451,6.18588235 81.2164706,6.36235294 C79.6901961,6.44 78.2282353,7.19215686 77.2243137,8.40235294 L77.2243137,0 L73,0 L73,22.8266667 L77.2243137,22.8266667 C77.2243137,22.8266667 77.2478431,15.3231373 77.2901961,13.6023529 C77.3490196,11.2039216 78.3223529,9.89882353 79.9372549,9.77176471 C81.7388235,9.62980392 83.0203922,11.1968627 83.08,13.9364706 C83.1505882,17.1403922 83.0909804,22.8266667 83.0909804,22.8266667 L87.3145098,22.8266667 C87.3145098,22.8266667 87.4219608,17.3239216 87.2972549,12.8745098" id="path-11"></path>
        <filter x="-13.9%" y="-8.8%" width="127.9%" height="117.5%" filterUnits="objectBoundingBox" id="filter-12">
            <feGaussianBlur stdDeviation="1.5" in="SourceAlpha" result="shadowBlurInner1"></feGaussianBlur>
            <feOffset dx="0" dy="1" in="shadowBlurInner1" result="shadowOffsetInner1"></feOffset>
            <feComposite in="shadowOffsetInner1" in2="SourceAlpha" operator="arithmetic" k2="-1" k3="1" result="shadowInnerInner1"></feComposite>
            <feColorMatrix values="0 0 0 0 0   0 0 0 0 0   0 0 0 0 0  0 0 0 1 0" type="matrix" in="shadowInnerInner1"></feColorMatrix>
        </filter>
        <path d="M26.1678431,9.92156863 C23.8266667,9.92156863 21.9215686,11.8266667 21.9215686,14.1678431 C21.9215686,16.5090196 23.8266667,18.4141176 26.1678431,18.4141176 L39.1678431,18.4141176 C41.5090196,18.4141176 43.4141176,16.5090196 43.4141176,14.1678431 C43.4141176,11.8266667 41.5090196,9.92156863 39.1678431,9.92156863 L26.1678431,9.92156863 Z M39.1678431,22.3356863 L26.1678431,22.3356863 C21.6643137,22.3356863 18,18.6713725 18,14.1678431 C18,9.66431373 21.6643137,6 26.1678431,6 L39.1678431,6 C43.6713725,6 47.3356863,9.66431373 47.3356863,14.1678431 C47.3356863,18.6713725 43.6713725,22.3356863 39.1678431,22.3356863 L39.1678431,22.3356863 Z" id="path-13"></path>
        <filter x="-5.1%" y="-9.2%" width="110.2%" height="118.4%" filterUnits="objectBoundingBox" id="filter-14">
            <feGaussianBlur stdDeviation="1" in="SourceAlpha" result="shadowBlurInner1"></feGaussianBlur>
            <feOffset dx="0" dy="1" in="shadowBlurInner1" result="shadowOffsetInner1"></feOffset>
            <feComposite in="shadowOffsetInner1" in2="SourceAlpha" operator="arithmetic" k2="-1" k3="1" result="shadowInnerInner1"></feComposite>
            <feColorMatrix values="0 0 0 0 0.694223002   0 0 0 0 0   0 0 0 0 0.030478083  0 0 0 1 0" type="matrix" in="shadowInnerInner1"></feColorMatrix>
        </filter>
    </defs>
    <g id="Symbols" stroke="none" stroke-width="1" fill="none" fill-rule="evenodd">
        <g id="LOGO3">
            <g id="LOGO-Copy">
                <g id="Fill-1">
                    <use fill="#4F4F4F" fill-rule="evenodd" xlink:href="#path-1"></use>
                    <use fill="black" fill-opacity="1" filter="url(#filter-2)" xlink:href="#path-1"></use>
                </g>
                <g id="Fill-3">
                    <use fill="#4F4F4F" fill-rule="evenodd" xlink:href="#path-3"></use>
                    <use fill="black" fill-opacity="1" filter="url(#filter-4)" xlink:href="#path-3"></use>
                </g>
                <g id="Fill-5">
                    <use fill="#4F4F4F" fill-rule="evenodd" xlink:href="#path-5"></use>
                    <use fill="black" fill-opacity="1" filter="url(#filter-6)" xlink:href="#path-5"></use>
                </g>
                <g id="Fill-6">
                    <use fill="#4F4F4F" fill-rule="evenodd" xlink:href="#path-7"></use>
                    <use fill="black" fill-opacity="1" filter="url(#filter-8)" xlink:href="#path-7"></use>
                </g>
                <g id="Fill-7">
                    <use fill="#4F4F4F" fill-rule="evenodd" xlink:href="#path-9"></use>
                    <use fill="black" fill-opacity="1" filter="url(#filter-10)" xlink:href="#path-9"></use>
                </g>
                <g id="Fill-8">
                    <use fill="#4F4F4F" fill-rule="evenodd" xlink:href="#path-11"></use>
                    <use fill="black" fill-opacity="1" filter="url(#filter-12)" xlink:href="#path-11"></use>
                </g>
                <g id="Fill-9">
                    <use fill="#EB1E27" fill-rule="evenodd" xlink:href="#path-13"></use>
                    <use fill="black" fill-opacity="1" filter="url(#filter-14)" xlink:href="#path-13"></use>
                </g>
            </g>
        </g>
    </g>
</svg>