<?xml version="1.0" encoding="UTF-8"?>
<svg width="22px" height="112px" viewBox="0 0 22 112" version="1.1" xmlns="http://www.w3.org/2000/svg" xmlns:xlink="http://www.w3.org/1999/xlink">
    <!-- Generator: Sketch 43.2 (39069) - http://www.bohemiancoding.com/sketch -->
    <title>22pxBianji</title>
    <desc>Created with Sketch.</desc>
    <defs></defs>
    <g id="Symbols" stroke="none" stroke-width="1" fill="none" fill-rule="evenodd">
        <g id="22pxBianji"></g>
        <g id="22px编辑1" fill="#828282">
            <g id="编辑1" transform="translate(1.000000, 1.000000)">
                <g id="Group-5" transform="translate(0.009766, 0.009766)">
                    <path d="M18.9169922,19.9697309 L1.04199219,19.9697309 C0.472441406,19.9697309 0.0107421875,19.5080316 0.0107421875,18.9384809 L0.0107421875,1.04199648 C0.0107421875,0.472445703 0.472441406,0.0107464844 1.04199219,0.0107464844 L10.7122813,0.0107464844 C11.281832,0.0107464844 11.7435313,0.472445703 11.7435313,1.04199648 C11.7435313,1.61154727 11.281832,2.07324648 10.7122813,2.07324648 L2.07324219,2.07324648 L2.07324219,17.9072309 L17.8857422,17.9072309 L17.8857422,9.32422305 C17.8857422,8.75467227 18.3474414,8.29297305 18.9169922,8.29297305 C19.486543,8.29297305 19.9482422,8.75467227 19.9482422,9.32422305 L19.9482422,18.9384809 C19.9482422,19.5080316 19.486543,19.9697309 18.9169922,19.9697309" id="Fill-1"></path>
                    <path d="M6.04886992,13.8876611 L6.88388164,11.6670791 L8.27750859,13.0462256 L6.04886992,13.8876611 Z M19.5779031,3.82180176 L16.1189188,0.362817383 C15.7497527,-0.00634863281 15.151198,-0.00634863281 14.782032,0.362817383 L5.85527422,9.2895752 C5.8542,9.29064941 5.8532332,9.29178809 5.85215898,9.2928623 C5.75442656,9.38820996 5.67703984,9.50495605 5.62749688,9.63669824 L3.54415703,15.1770029 C3.41351055,15.5244912 3.49833086,15.9162803 3.76099883,16.1786045 C3.94153203,16.3588584 4.18301641,16.4550439 4.42916289,16.4550439 C4.54122539,16.4550439 4.65425469,16.4351064 4.76290117,16.3940928 L10.3232508,14.2947256 C10.6243973,14.1810088 10.8470184,13.9218857 10.9139852,13.6070107 C10.980952,13.2921572 10.8830906,12.9648643 10.654282,12.7384404 L7.84807891,9.96134863 L7.86187188,9.95672949 L15.4504754,2.36812598 L17.5725945,4.49024512 L11.5164285,10.5464111 C11.1472625,10.9155771 11.1472625,11.5141104 11.5164285,11.8832979 C11.885573,12.2524639 12.4841277,12.2524424 12.8532938,11.8832764 L19.5779031,5.15866699 C19.9470691,4.78950098 19.9470691,4.19096777 19.5779031,3.82180176 L19.5779031,3.82180176 Z" id="Fill-3"></path>
                </g>
            </g>
        </g>
        <g id="22px编辑2" transform="translate(0.000000, 30.000000)">
            <g id="编辑3">
                <g id="Group-5" transform="translate(1.009766, 1.009766)" fill="#6D7DFA">
                    <path d="M18.9169922,19.9697309 L1.04199219,19.9697309 C0.472441406,19.9697309 0.0107421875,19.5080316 0.0107421875,18.9384809 L0.0107421875,1.04199648 C0.0107421875,0.472445703 0.472441406,0.0107464844 1.04199219,0.0107464844 L10.7122813,0.0107464844 C11.281832,0.0107464844 11.7435313,0.472445703 11.7435313,1.04199648 C11.7435313,1.61154727 11.281832,2.07324648 10.7122813,2.07324648 L2.07324219,2.07324648 L2.07324219,17.9072309 L17.8857422,17.9072309 L17.8857422,9.32422305 C17.8857422,8.75467227 18.3474414,8.29297305 18.9169922,8.29297305 C19.486543,8.29297305 19.9482422,8.75467227 19.9482422,9.32422305 L19.9482422,18.9384809 C19.9482422,19.5080316 19.486543,19.9697309 18.9169922,19.9697309" id="Fill-1"></path>
                    <path d="M6.04886992,13.8876611 L6.88388164,11.6670791 L8.27750859,13.0462256 L6.04886992,13.8876611 Z M19.5779031,3.82180176 L16.1189188,0.362817383 C15.7497527,-0.00634863281 15.151198,-0.00634863281 14.782032,0.362817383 L5.85527422,9.2895752 C5.8542,9.29064941 5.8532332,9.29178809 5.85215898,9.2928623 C5.75442656,9.38820996 5.67703984,9.50495605 5.62749688,9.63669824 L3.54415703,15.1770029 C3.41351055,15.5244912 3.49833086,15.9162803 3.76099883,16.1786045 C3.94153203,16.3588584 4.18301641,16.4550439 4.42916289,16.4550439 C4.54122539,16.4550439 4.65425469,16.4351064 4.76290117,16.3940928 L10.3232508,14.2947256 C10.6243973,14.1810088 10.8470184,13.9218857 10.9139852,13.6070107 C10.980952,13.2921572 10.8830906,12.9648643 10.654282,12.7384404 L7.84807891,9.96134863 L7.86187188,9.95672949 L15.4504754,2.36812598 L17.5725945,4.49024512 L11.5164285,10.5464111 C11.1472625,10.9155771 11.1472625,11.5141104 11.5164285,11.8832979 C11.885573,12.2524639 12.4841277,12.2524424 12.8532938,11.8832764 L19.5779031,5.15866699 C19.9470691,4.78950098 19.9470691,4.19096777 19.5779031,3.82180176 L19.5779031,3.82180176 Z" id="Fill-3"></path>
                </g>
                <path d="M0,22 L22,22 L22,0 L0,0 L0,22 Z M0.021484375,21.9785156 L21.9785156,21.9785156 L21.9785156,0.021484375 L0.021484375,0.021484375 L0.021484375,21.9785156 Z" id="Fill-6" fill="#808080"></path>
            </g>
        </g>
        <g id="22px编辑3" transform="translate(0.000000, 60.000000)" fill="#BDBDBD">
            <g id="编辑3" transform="translate(1.000000, 1.000000)">
                <g id="Group-5" transform="translate(0.009766, 0.009766)">
                    <path d="M18.9169922,19.9697309 L1.04199219,19.9697309 C0.472441406,19.9697309 0.0107421875,19.5080316 0.0107421875,18.9384809 L0.0107421875,1.04199648 C0.0107421875,0.472445703 0.472441406,0.0107464844 1.04199219,0.0107464844 L10.7122813,0.0107464844 C11.281832,0.0107464844 11.7435313,0.472445703 11.7435313,1.04199648 C11.7435313,1.61154727 11.281832,2.07324648 10.7122813,2.07324648 L2.07324219,2.07324648 L2.07324219,17.9072309 L17.8857422,17.9072309 L17.8857422,9.32422305 C17.8857422,8.75467227 18.3474414,8.29297305 18.9169922,8.29297305 C19.486543,8.29297305 19.9482422,8.75467227 19.9482422,9.32422305 L19.9482422,18.9384809 C19.9482422,19.5080316 19.486543,19.9697309 18.9169922,19.9697309" id="Fill-1"></path>
                    <path d="M6.04886992,13.8876611 L6.88388164,11.6670791 L8.27750859,13.0462256 L6.04886992,13.8876611 Z M19.5779031,3.82180176 L16.1189188,0.362817383 C15.7497527,-0.00634863281 15.151198,-0.00634863281 14.782032,0.362817383 L5.85527422,9.2895752 C5.8542,9.29064941 5.8532332,9.29178809 5.85215898,9.2928623 C5.75442656,9.38820996 5.67703984,9.50495605 5.62749688,9.63669824 L3.54415703,15.1770029 C3.41351055,15.5244912 3.49833086,15.9162803 3.76099883,16.1786045 C3.94153203,16.3588584 4.18301641,16.4550439 4.42916289,16.4550439 C4.54122539,16.4550439 4.65425469,16.4351064 4.76290117,16.3940928 L10.3232508,14.2947256 C10.6243973,14.1810088 10.8470184,13.9218857 10.9139852,13.6070107 C10.980952,13.2921572 10.8830906,12.9648643 10.654282,12.7384404 L7.84807891,9.96134863 L7.86187188,9.95672949 L15.4504754,2.36812598 L17.5725945,4.49024512 L11.5164285,10.5464111 C11.1472625,10.9155771 11.1472625,11.5141104 11.5164285,11.8832979 C11.885573,12.2524639 12.4841277,12.2524424 12.8532938,11.8832764 L19.5779031,5.15866699 C19.9470691,4.78950098 19.9470691,4.19096777 19.5779031,3.82180176 L19.5779031,3.82180176 Z" id="Fill-3"></path>
                </g>
            </g>
        </g>
        <g id="22px编辑4" transform="translate(0.000000, 90.000000)" fill="#FFFFFF">
            <g id="编辑3" transform="translate(1.000000, 1.000000)">
                <g id="Group-5" transform="translate(0.009766, 0.009766)">
                    <path d="M18.9169922,19.9697309 L1.04199219,19.9697309 C0.472441406,19.9697309 0.0107421875,19.5080316 0.0107421875,18.9384809 L0.0107421875,1.04199648 C0.0107421875,0.472445703 0.472441406,0.0107464844 1.04199219,0.0107464844 L10.7122813,0.0107464844 C11.281832,0.0107464844 11.7435313,0.472445703 11.7435313,1.04199648 C11.7435313,1.61154727 11.281832,2.07324648 10.7122813,2.07324648 L2.07324219,2.07324648 L2.07324219,17.9072309 L17.8857422,17.9072309 L17.8857422,9.32422305 C17.8857422,8.75467227 18.3474414,8.29297305 18.9169922,8.29297305 C19.486543,8.29297305 19.9482422,8.75467227 19.9482422,9.32422305 L19.9482422,18.9384809 C19.9482422,19.5080316 19.486543,19.9697309 18.9169922,19.9697309" id="Fill-1"></path>
                    <path d="M6.04886992,13.8876611 L6.88388164,11.6670791 L8.27750859,13.0462256 L6.04886992,13.8876611 Z M19.5779031,3.82180176 L16.1189188,0.362817383 C15.7497527,-0.00634863281 15.151198,-0.00634863281 14.782032,0.362817383 L5.85527422,9.2895752 C5.8542,9.29064941 5.8532332,9.29178809 5.85215898,9.2928623 C5.75442656,9.38820996 5.67703984,9.50495605 5.62749688,9.63669824 L3.54415703,15.1770029 C3.41351055,15.5244912 3.49833086,15.9162803 3.76099883,16.1786045 C3.94153203,16.3588584 4.18301641,16.4550439 4.42916289,16.4550439 C4.54122539,16.4550439 4.65425469,16.4351064 4.76290117,16.3940928 L10.3232508,14.2947256 C10.6243973,14.1810088 10.8470184,13.9218857 10.9139852,13.6070107 C10.980952,13.2921572 10.8830906,12.9648643 10.654282,12.7384404 L7.84807891,9.96134863 L7.86187188,9.95672949 L15.4504754,2.36812598 L17.5725945,4.49024512 L11.5164285,10.5464111 C11.1472625,10.9155771 11.1472625,11.5141104 11.5164285,11.8832979 C11.885573,12.2524639 12.4841277,12.2524424 12.8532938,11.8832764 L19.5779031,5.15866699 C19.9470691,4.78950098 19.9470691,4.19096777 19.5779031,3.82180176 L19.5779031,3.82180176 Z" id="Fill-3"></path>
                </g>
            </g>
        </g>
    </g>
</svg>