<?xml version="1.0" encoding="UTF-8"?>
<svg width="22px" height="112px" viewBox="0 0 22 112" version="1.1" xmlns="http://www.w3.org/2000/svg" xmlns:xlink="http://www.w3.org/1999/xlink">
    <!-- Generator: Sketch 43.2 (39069) - http://www.bohemiancoding.com/sketch -->
    <title>22pxBianjiguigou</title>
    <desc>Created with Sketch.</desc>
    <defs></defs>
    <g id="Symbols" stroke="none" stroke-width="1" fill="none" fill-rule="evenodd">
        <g id="22pxBianjiguigou"></g>
        <g id="22px编辑对勾2" transform="translate(0.000000, 30.000000)" fill="#6D7DFA">
            <g id="编辑3" transform="translate(1.000000, 1.000000)">
                <g id="Group-5" transform="translate(0.031250, 0.009766)">
                    <path d="M18.9079924,19.9462119 L1.03567793,19.9462119 C0.466148633,19.9462119 0.00442792969,19.4845127 0.00442792969,18.9149619 L0.00442792969,1.05162793 C0.00442792969,0.482098633 0.466148633,0.0203779297 1.03567793,0.0203779297 L15.3624904,0.0203779297 C15.9320197,0.0203779297 16.3937404,0.482098633 16.3937404,1.05162793 C16.3937404,1.62117871 15.9320197,2.08287793 15.3624904,2.08287793 L2.06692793,2.08287793 L2.06692793,17.8837119 L17.8767424,17.8837119 L17.8767424,9.81783301 C17.8767424,9.24828223 18.3384416,8.78658301 18.9079924,8.78658301 C19.4775432,8.78658301 19.9392424,9.24828223 19.9392424,9.81783301 L19.9392424,18.9149619 C19.9392424,19.4845127 19.4775432,19.9462119 18.9079924,19.9462119" id="Fill-1"></path>
                    <path d="M8.60623457,15.167973 C8.34232051,15.167973 8.07840645,15.0672758 7.8770334,14.8659242 L3.78425996,10.7731508 C3.38153535,10.3704262 3.38153535,9.71747305 3.78425996,9.31474844 C4.18700605,8.91202383 4.83991621,8.91202383 5.2426623,9.31474844 L8.60623457,12.6782992 L17.4751779,3.80937734 C17.877924,3.40665273 18.5308342,3.40665273 18.9335803,3.80937734 C19.3363049,4.21210195 19.3363049,4.86505508 18.9335803,5.26777969 L9.33543574,14.8659242 C9.1340627,15.0672758 8.87014863,15.167973 8.60623457,15.167973" id="Fill-3"></path>
                </g>
            </g>
        </g>
        <g id="22px编辑对勾3" transform="translate(0.000000, 60.000000)" fill="#BDBDBD">
            <g id="编辑1" transform="translate(1.000000, 1.000000)">
                <g id="Group-5" transform="translate(0.031250, 0.009766)">
                    <path d="M18.9079924,19.9462119 L1.03567793,19.9462119 C0.466148633,19.9462119 0.00442792969,19.4845127 0.00442792969,18.9149619 L0.00442792969,1.05162793 C0.00442792969,0.482098633 0.466148633,0.0203779297 1.03567793,0.0203779297 L15.3624904,0.0203779297 C15.9320197,0.0203779297 16.3937404,0.482098633 16.3937404,1.05162793 C16.3937404,1.62117871 15.9320197,2.08287793 15.3624904,2.08287793 L2.06692793,2.08287793 L2.06692793,17.8837119 L17.8767424,17.8837119 L17.8767424,9.81783301 C17.8767424,9.24828223 18.3384416,8.78658301 18.9079924,8.78658301 C19.4775432,8.78658301 19.9392424,9.24828223 19.9392424,9.81783301 L19.9392424,18.9149619 C19.9392424,19.4845127 19.4775432,19.9462119 18.9079924,19.9462119" id="Fill-1"></path>
                    <path d="M8.60623457,15.167973 C8.34232051,15.167973 8.07840645,15.0672758 7.8770334,14.8659242 L3.78425996,10.7731508 C3.38153535,10.3704262 3.38153535,9.71747305 3.78425996,9.31474844 C4.18700605,8.91202383 4.83991621,8.91202383 5.2426623,9.31474844 L8.60623457,12.6782992 L17.4751779,3.80937734 C17.877924,3.40665273 18.5308342,3.40665273 18.9335803,3.80937734 C19.3363049,4.21210195 19.3363049,4.86505508 18.9335803,5.26777969 L9.33543574,14.8659242 C9.1340627,15.0672758 8.87014863,15.167973 8.60623457,15.167973" id="Fill-3"></path>
                </g>
            </g>
        </g>
        <g id="22px编辑对勾4" transform="translate(0.000000, 90.000000)" fill="#FFFFFF">
            <g id="编辑1" transform="translate(1.000000, 1.000000)">
                <g id="Group-5" transform="translate(0.031250, 0.009766)">
                    <path d="M18.9079924,19.9462119 L1.03567793,19.9462119 C0.466148633,19.9462119 0.00442792969,19.4845127 0.00442792969,18.9149619 L0.00442792969,1.05162793 C0.00442792969,0.482098633 0.466148633,0.0203779297 1.03567793,0.0203779297 L15.3624904,0.0203779297 C15.9320197,0.0203779297 16.3937404,0.482098633 16.3937404,1.05162793 C16.3937404,1.62117871 15.9320197,2.08287793 15.3624904,2.08287793 L2.06692793,2.08287793 L2.06692793,17.8837119 L17.8767424,17.8837119 L17.8767424,9.81783301 C17.8767424,9.24828223 18.3384416,8.78658301 18.9079924,8.78658301 C19.4775432,8.78658301 19.9392424,9.24828223 19.9392424,9.81783301 L19.9392424,18.9149619 C19.9392424,19.4845127 19.4775432,19.9462119 18.9079924,19.9462119" id="Fill-1"></path>
                    <path d="M8.60623457,15.167973 C8.34232051,15.167973 8.07840645,15.0672758 7.8770334,14.8659242 L3.78425996,10.7731508 C3.38153535,10.3704262 3.38153535,9.71747305 3.78425996,9.31474844 C4.18700605,8.91202383 4.83991621,8.91202383 5.2426623,9.31474844 L8.60623457,12.6782992 L17.4751779,3.80937734 C17.877924,3.40665273 18.5308342,3.40665273 18.9335803,3.80937734 C19.3363049,4.21210195 19.3363049,4.86505508 18.9335803,5.26777969 L9.33543574,14.8659242 C9.1340627,15.0672758 8.87014863,15.167973 8.60623457,15.167973" id="Fill-3"></path>
                </g>
            </g>
        </g>
        <g id="22px编辑对勾1" fill="#828282">
            <g id="编辑4" transform="translate(1.000000, 1.000000)">
                <g id="Group-5" transform="translate(0.031250, 0.009766)">
                    <path d="M18.9079924,19.9462119 L1.03567793,19.9462119 C0.466148633,19.9462119 0.00442792969,19.4845127 0.00442792969,18.9149619 L0.00442792969,1.05162793 C0.00442792969,0.482098633 0.466148633,0.0203779297 1.03567793,0.0203779297 L15.3624904,0.0203779297 C15.9320197,0.0203779297 16.3937404,0.482098633 16.3937404,1.05162793 C16.3937404,1.62117871 15.9320197,2.08287793 15.3624904,2.08287793 L2.06692793,2.08287793 L2.06692793,17.8837119 L17.8767424,17.8837119 L17.8767424,9.81783301 C17.8767424,9.24828223 18.3384416,8.78658301 18.9079924,8.78658301 C19.4775432,8.78658301 19.9392424,9.24828223 19.9392424,9.81783301 L19.9392424,18.9149619 C19.9392424,19.4845127 19.4775432,19.9462119 18.9079924,19.9462119" id="Fill-1"></path>
                    <path d="M8.60623457,15.167973 C8.34232051,15.167973 8.07840645,15.0672758 7.8770334,14.8659242 L3.78425996,10.7731508 C3.38153535,10.3704262 3.38153535,9.71747305 3.78425996,9.31474844 C4.18700605,8.91202383 4.83991621,8.91202383 5.2426623,9.31474844 L8.60623457,12.6782992 L17.4751779,3.80937734 C17.877924,3.40665273 18.5308342,3.40665273 18.9335803,3.80937734 C19.3363049,4.21210195 19.3363049,4.86505508 18.9335803,5.26777969 L9.33543574,14.8659242 C9.1340627,15.0672758 8.87014863,15.167973 8.60623457,15.167973" id="Fill-3"></path>
                </g>
            </g>
        </g>
    </g>
</svg>