<?xml version="1.0" encoding="UTF-8"?>
<svg width="22px" height="112px" viewBox="0 0 22 112" version="1.1" xmlns="http://www.w3.org/2000/svg" xmlns:xlink="http://www.w3.org/1999/xlink">
    <!-- Generator: Sketch 43.2 (39069) - http://www.bohemiancoding.com/sketch -->
    <title>22pxBofang</title>
    <desc>Created with Sketch.</desc>
    <defs></defs>
    <g id="Symbols" stroke="none" stroke-width="1" fill="none" fill-rule="evenodd">
        <g id="22pxBofang"></g>
        <g id="22px播放4" transform="translate(0.000000, 90.000000)">
            <g id="播放5">
                <path d="M4.12494844,20.9751545 C3.95646797,20.9751545 3.78766523,20.933926 3.63411641,20.8508244 C3.30117305,20.6706135 3.09374141,20.3224807 3.09374141,19.9439045 L3.09374141,6.49468574 C3.09374141,5.92513496 3.55546211,5.46343574 4.12499141,5.46343574 C4.69454219,5.46343574 5.15624141,5.92513496 5.15624141,6.49468574 L5.15624141,18.0386486 L15.9859562,10.9655197 L3.56298164,2.89057441 C3.08544844,2.58018965 2.94996797,1.9414377 3.26035273,1.46392598 C3.57075898,0.986371289 4.20951094,0.850933789 4.68702266,1.16129707 L18.4370227,10.0987971 C18.7293605,10.2888049 18.9058547,10.6136486 18.9062414,10.9622971 C18.9066496,11.310967 18.7308215,11.636176 18.4389133,11.8268498 L4.68891328,20.8073186 C4.51813398,20.9188654 4.32178828,20.9751545 4.12494844,20.9751545" id="Fill-1" fill="#FFFFFF"></path>
                <path d="M0,22 L22,22 L22,0 L0,0 L0,22 Z M0.021484375,21.9785156 L21.9785156,21.9785156 L21.9785156,0.021484375 L0.021484375,0.021484375 L0.021484375,21.9785156 Z" id="Fill-3" fill="#808080"></path>
            </g>
        </g>
        <g id="22px播放2" transform="translate(0.000000, 30.000000)" fill="#6D7DFA">
            <g id="播放2" transform="translate(3.000000, 0.000000)">
                <path d="M1.12494844,20.9751545 C0.956467969,20.9751545 0.787665234,20.933926 0.634116406,20.8508244 C0.301173047,20.6706135 0.0937414062,20.3224807 0.0937414062,19.9439045 L0.0937414062,6.49468574 C0.0937414062,5.92513496 0.555462109,5.46343574 1.12499141,5.46343574 C1.69454219,5.46343574 2.15624141,5.92513496 2.15624141,6.49468574 L2.15624141,18.0386486 L12.9859562,10.9655197 L0.562981641,2.89057441 C0.0854484375,2.58018965 -0.0500320313,1.9414377 0.260352734,1.46392598 C0.570758984,0.986371289 1.20951094,0.850933789 1.68702266,1.16129707 L15.4370227,10.0987971 C15.7293605,10.2888049 15.9058547,10.6136486 15.9062414,10.9622971 C15.9066496,11.310967 15.7308215,11.636176 15.4389133,11.8268498 L1.68891328,20.8073186 C1.51813398,20.9188654 1.32178828,20.9751545 1.12494844,20.9751545" id="Fill-1"></path>
            </g>
        </g>
        <g id="22px播放3" transform="translate(0.000000, 60.000000)" fill="#BDBDBD">
            <g id="播放2" transform="translate(3.000000, 0.000000)">
                <path d="M1.12494844,20.9751545 C0.956467969,20.9751545 0.787665234,20.933926 0.634116406,20.8508244 C0.301173047,20.6706135 0.0937414062,20.3224807 0.0937414062,19.9439045 L0.0937414062,6.49468574 C0.0937414062,5.92513496 0.555462109,5.46343574 1.12499141,5.46343574 C1.69454219,5.46343574 2.15624141,5.92513496 2.15624141,6.49468574 L2.15624141,18.0386486 L12.9859562,10.9655197 L0.562981641,2.89057441 C0.0854484375,2.58018965 -0.0500320313,1.9414377 0.260352734,1.46392598 C0.570758984,0.986371289 1.20951094,0.850933789 1.68702266,1.16129707 L15.4370227,10.0987971 C15.7293605,10.2888049 15.9058547,10.6136486 15.9062414,10.9622971 C15.9066496,11.310967 15.7308215,11.636176 15.4389133,11.8268498 L1.68891328,20.8073186 C1.51813398,20.9188654 1.32178828,20.9751545 1.12494844,20.9751545" id="Fill-1"></path>
            </g>
        </g>
        <g id="22px播放1" fill="#828282">
            <g id="播放4" transform="translate(3.000000, 0.000000)">
                <path d="M1.12494844,20.9751545 C0.956467969,20.9751545 0.787665234,20.933926 0.634116406,20.8508244 C0.301173047,20.6706135 0.0937414062,20.3224807 0.0937414062,19.9439045 L0.0937414062,6.49468574 C0.0937414062,5.92513496 0.555462109,5.46343574 1.12499141,5.46343574 C1.69454219,5.46343574 2.15624141,5.92513496 2.15624141,6.49468574 L2.15624141,18.0386486 L12.9859562,10.9655197 L0.562981641,2.89057441 C0.0854484375,2.58018965 -0.0500320313,1.9414377 0.260352734,1.46392598 C0.570758984,0.986371289 1.20951094,0.850933789 1.68702266,1.16129707 L15.4370227,10.0987971 C15.7293605,10.2888049 15.9058547,10.6136486 15.9062414,10.9622971 C15.9066496,11.310967 15.7308215,11.636176 15.4389133,11.8268498 L1.68891328,20.8073186 C1.51813398,20.9188654 1.32178828,20.9751545 1.12494844,20.9751545" id="Fill-1"></path>
            </g>
        </g>
    </g>
</svg>